<?xml version="1.0" encoding="utf-8"?>
<svg version="1.1" id="Layer_1"
xmlns="http://www.w3.org/2000/svg"
xmlns:xlink="http://www.w3.org/1999/xlink"
width="150px" height="150px"
xml:space="preserve">
<g id="PathID_1" transform="matrix(1.95449, 0, 0, 1.95449, 0.4, 106.8)" opacity="1">
<path style="fill:#313131;fill-opacity:1" d="M8.25 -21.2L8.45 -21.15L8.5 -21.2Q8.8 -21 9.05 -20.45L9.55 -20.8L9.95 -20.35L10.7 -20.7L11.5 -20.35L12.6 -20.45L16.85 -20.35L17.2 -19.9L18.2 -19.9L18.9 -19.3L20.2 -19.8L20.95 -19.8L21.5 -19.45L22.2 -19.45L22.6 -19.1L23.35 -19.1L23.75 -18.7L23.95 -18.65Q24.3 -18.6 24.8 -18.2L24.85 -18.2Q25.25 -18.4 26.15 -18.55L27.1 -17.7L27.4 -17.1L29.3 -15.9L31.4 -13.95L30.95 -13.1L31.75 -12.45L31.2 -10.55L31.05 -8.85L30.45 -7.9Q30.25 -7.55 29.85 -6.4L28.8 -5.85L28.6 -5.3L24.05 -2.25L23.55 -2.4L23.5 -2.05L18.7 -0.5L17.95 0.1L16.65 0.1L16.3 0.45L15.6 0.45L15.25 0.85L14.35 0.6L12.25 1.25L12.05 1.2L11.45 1.25L9.8 1.65L7.1 1.35L5.8 1.75L4.1 1.35L3.85 1.35L3.5 1.3L3.15 1.3L2.55 0.95L1.8 0.45L0.75 -1L0.85 -3.3L1.5 -3.45L1.95 -3.85L2.6 -4.2Q3 -4.65 3.95 -5.3L7.25 -5.3L7.25 -3.9L7.15 -3.8L7.5 -3.35L6.5 -2.2L6.25 -1.7L6.3 -1.65L6.95 -1.2L7.2 -1.7L8.45 -2L9.8 -1.65L11.05 -1.55L11.95 -2L12.85 -2L13.8 -2.2L14.3 -2.45L15.3 -2.45L15.8 -2.55L17.9 -3.4L18.55 -3.55L19 -3.8Q19.3 -4 20.4 -4.2L20.9 -4.6L21.3 -4.5L23.05 -5.5L23.6 -6.7L24.5 -6.9L24.45 -7.35L24.9 -7.7L24.7 -7.8L25.2 -9.4L25.1 -9.95L25.4 -10.7L24.85 -11.8L25.1 -12.75L24.6 -13.75L24 -14L23.4 -15.05L22 -14.8L21.45 -15.95L21.1 -16.3Q20.6 -16.4 20.2 -16.75L19.25 -15.95L18.65 -16.35L17.35 -16.65L16.95 -17.3L16.75 -16.95L16.1 -17.2L15.6 -16.75L14.65 -17.2L14.2 -16.5L13.25 -17.05L13.15 -16.5L11.55 -16.5L11.3 -16.9L10.65 -17.05L9.75 -16.6L8.5 -16.7Q8.25 -16.75 7.65 -17.2L7.1 -16.95L7.1 -17.2L7.05 -16.8L4.9 -16.6L4.8 -16.85L4.4 -16.75L3.2 -17.75L2.9 -18.5L2.35 -19.45L3.6 -20.8L3.8 -20.8L4.25 -21.6L4.75 -21.6L5.2 -22.15L6.45 -22.95L7.75 -24.1L8.5 -24.6L9.35 -24.95L10.15 -25.75L10.85 -26.1L11.6 -26.7L12.75 -27.4L13.8 -28.55L15 -29.25Q15.35 -29.55 15.75 -29.7L15.9 -29.95L17.6 -31.2L17.95 -31.2L18.5 -31.85Q19.3 -32.25 19.6 -32.5L19.75 -32.95L20.3 -33.25L20.4 -33.4Q21.65 -34.3 22.45 -35.05L22.35 -35.05L22.35 -35.25L22.85 -35.25L22.9 -35.5L24.15 -35.9L26.35 -37.15L27.05 -36.65L28 -36.75L29.35 -35.3L29.35 -34.85L29.9 -34.35L30.3 -33L30.15 -32.75L30.3 -32.75L29.95 -28.2L29.1 -27.35L28.15 -26.85L26.95 -25.35L25.9 -25.05L24.85 -24.1L23.05 -24.85L22.6 -26.25L23.15 -26.85L22.8 -27.6L23.4 -28.8Q23.3 -29.45 23.45 -29.4L22.25 -29.25L21.4 -29.6L20.45 -29.35L20.6 -29L19.25 -27.8L18.7 -27.8L14.15 -24.95L13.25 -24.05L12.75 -23.95L12.6 -23.55L11.45 -23.3L11.55 -23.1L10.4 -22.6L8.5 -21.2L8.25 -21.2" />
</g>
<g id="PathID_2" transform="matrix(1.95449, 0, 0, 1.95449, 0.4, 106.8)" opacity="1">
</g>
<g id="PathID_3" transform="matrix(1.95449, 0, 0, 1.95449, 68.8, 106.8)" opacity="1">
<path style="fill:#313131;fill-opacity:1" d="M32.3 -34.7Q33.8 -34.3 34.5 -34.2L35.1 -32.35L34.5 -31.1L32.85 -27.3L32.85 -26.6L32.05 -26.3L31.95 -25.85L31.7 -25.85Q31.95 -26.15 32.05 -24.6L31.65 -24.5L31.55 -23.2L31.05 -22.5L30.85 -21.35L30.6 -21.3L30.7 -20.75L30.45 -20.2L30.45 -19.25L30.25 -19L30.25 -18.25L29.9 -17.9L32.35 -17.55L32.5 -17.4L33.45 -17.55Q33.75 -17.55 33.85 -17.65L34.7 -18.2L35.75 -18.05L36.75 -18.6Q38.1 -18.95 38.9 -19.35L40.65 -19.05L40.65 -16.7L39.85 -15.5L39.85 -14.7L38.65 -14.8L38.1 -14.6L37.4 -14.7L36.6 -14.35L36.4 -14.6L36.15 -14L34.3 -13.65L33.25 -13.1L32.05 -13.1L30.3 -12.7L30.2 -12.95L30.05 -12.8L29.7 -12.2L29.7 -8.65L29.45 -8.4L29.8 -7.75L29.7 -6.7L29.9 -5.85L29.9 -5.3L30.05 -5.2L31.1 -5.2L32.45 -4.85L32.65 -3.35L31.8 -2.6L31.65 -2L30.75 -0.7L30.55 0.15L29.85 0.7L29.6 1.45L27.7 2.6Q27.4 3.1 27.05 3.35L26.5 3.85L26.2 4.1L23.85 4.7L23.95 3L24.6 2.6L24.8 1.95L25.05 1.75L25.15 1.65L24.5 1.05L25.1 -1.7L25 -2.1L25.15 -2.85L25 -3.3L25.5 -4.95L25.15 -6.55L25.3 -7.05L25.4 -10.4L25.5 -11.2L25.4 -11.4L25.4 -11.8L24.9 -12.75L24.9 -12.4L22.75 -12.6L22.55 -12.6L21.55 -12.25L21.55 -11.8L19.6 -11.45L19.3 -11.7L19.2 -11.45L18.35 -11.6L16.95 -11.35L14.65 -10.5L14.55 -10.25L14.55 -6.55L14.2 -6.2L16 -5.6L16 -4.25L16.1 -3.6L15.6 -3.15L15.45 -2.4L15.5 -1.6L15.8 -1.35Q15.45 -0.25 14.85 0.25L14.55 0.25L14.55 0.3L13.9 0.8L13.35 1.85L13.1 1.85L12.45 2.45L10.95 2.2L10.1 2.2L9.25 1.45L9.4 0.65Q9.5 0.25 9.95 -0.15L10.05 -1L9.8 -1.8L10.05 -3.35L9.95 -4.3L10.25 -5.55L10.15 -6.85L10.25 -6.95L10.25 -7.5L10.6 -8.3L10.6 -8.5L10.25 -9.15L10.6 -10.35L10.3 -10.6L10 -10.65L9.55 -10.2L9.1 -10.45Q9 -10.2 8.3 -10.15L7.85 -9.7L4.65 -9.1L4.6 -9.1L4.1 -8.65L3 -9.1L2.05 -8.75L1.45 -9.65L1.75 -10.25L1.45 -10.45L1.9 -12.55L2.8 -13L3.05 -13.3L4.95 -13.7L6.05 -13.45L6.15 -13.3L6.9 -13.7L7.9 -13.6L8.65 -13.7L9.1 -13.55L9.2 -13.8L9.95 -13.95L10.1 -13.85L10.75 -14.1Q11 -13.8 11.4 -13.7L11.5 -13.9L11.3 -15.65Q11.95 -16.6 12.1 -16.65L11.75 -16.8L12.25 -17.9L11.75 -19.25L12.1 -21L11.85 -22.95L12.25 -23.35L12.1 -23.6L12.45 -24.5L12.3 -25.45L11.95 -25.4Q11.65 -25.4 11.35 -25.2Q11.05 -25.05 10.5 -24.45L10 -24.6L9.8 -24.3Q9.45 -24 9.15 -23.9L8.7 -23.75L8.9 -23.05L7.7 -21.4L7.45 -22.1Q7.55 -21.75 6.65 -20.95L6.1 -21.2L5.75 -21L5.65 -20.8L4.95 -20.35L4.95 -19.8L2.65 -20.3L1.85 -21.2L1.85 -22.45L2.35 -23.9L3.65 -25.3L4.6 -25.7L5.25 -26.15L6.3 -26.65L6.6 -27.05L7.6 -27.2L7.9 -27.6L8.55 -27.6L9.6 -28.45L10.25 -28.45L10.5 -28.8L11.65 -28.8L12.45 -29.2L13 -29.9L13.75 -30Q13.9 -30 14.2 -30.2L14.3 -30.8L15.15 -30.9L15.55 -31.4L15.9 -31.4L16.5 -32.15L17.95 -32.65L19.5 -32.5Q20.15 -31.65 20.9 -31L20.9 -29.55L20.45 -28.7L19.3 -28.55L19.15 -27.8L18.55 -25.75L18.05 -23.65L18.05 -22.85L17.6 -22.4L17.7 -21.6L17.3 -21.1L16.5 -17.35L16.05 -16.75L16 -15.75L16 -15.7L16.65 -15.8L17.7 -15.45L18.75 -15.65L21.5 -15.9L22.3 -15.9L22.45 -15.7L23.65 -16L23.95 -16.25L25.05 -16.25L25.95 -16.05L26.25 -16.2L26.05 -17.35L26.6 -18.1L26.35 -18.8L26.7 -20L26.6 -21.1L26.85 -21.85L26.6 -22.55L26.85 -23.35Q27 -23.7 27.4 -24L26.9 -24.55L27.5 -26.05L27.5 -26.7L27.25 -28.05L27.5 -28.3L27.25 -28.6L28.1 -30.25L28.15 -30.3L28.3 -31.5L28.75 -31.8L28.95 -32.3L29.75 -32.65L31.2 -33.9L31.85 -33.9L32.3 -34.7" />
</g>
<g id="PathID_4" transform="matrix(1.95449, 0, 0, 1.95449, 68.8, 106.8)" opacity="1">
</g>
</svg>
