<?xml version="1.0" encoding="utf-8"?>
<svg version="1.1" id="Layer_1"
xmlns="http://www.w3.org/2000/svg"
xmlns:xlink="http://www.w3.org/1999/xlink"
width="550px" height="130px"
xml:space="preserve">
<g id="PathID_1" transform="matrix(2.18244, 0, 0, -0.95843, 18.75, 49.35)" opacity="1">
<path style="fill:#313131;fill-opacity:1" d="M235.35 2.9L0 2.9L0 0L235.35 0L235.35 2.9" />
</g>
<g id="PathID_2" transform="matrix(2.18244, 0, 0, -0.95843, 18.75, 49.35)" opacity="1">
</g>
<g id="PathID_3" transform="matrix(2.18228, 0, 0, 2.21808, 18.75, 115.35)" opacity="1">
<path style="fill:#313131;fill-opacity:1" d="M235.35 2.9L0 2.9L0 0L235.35 0L235.35 2.9" />
</g>
<g id="PathID_4" transform="matrix(2.18228, 0, 0, 2.21808, 18.75, 115.35)" opacity="1">
</g>
<g id="PathID_5" transform="matrix(0.47727, 0, 0, 0.47727, 140.8, 32.85)" opacity="1">
<path style="fill:#313131;fill-opacity:1" d="M30.5 -28.1Q30.5 -28.45 30.2 -28.45L12.3 -28.45L12.3 -20.2L30.2 -20.2Q30.5 -20.2 30.5 -20.55L30.5 -28.1M29.5 0L19.6 -14.2L12.3 -14.2L12.3 0L6.25 0L6.25 -34.45L31 -34.45Q33.35 -34.45 34.95 -32.85Q36.55 -31.25 36.55 -28.95L36.55 -19.7Q36.55 -17.5 34.45 -15.7Q33.3 -14.2 31 -14.2L26.7 -14.2L36.55 0L29.5 0" />
</g>
<g id="PathID_6" transform="matrix(0.47727, 0, 0, 0.47727, 140.8, 32.85)" opacity="1">
</g>
<g id="PathID_7" transform="matrix(0.47727, 0, 0, 0.47727, 174.75, 32.85)" opacity="1">
<path style="fill:#313131;fill-opacity:1" d="M11.8 0Q9.5 0 7.85 -1.6Q6.25 -3.2 6.25 -5.5L6.25 -28.95Q6.25 -31.25 7.85 -32.85Q9.45 -34.45 11.8 -34.45L36.55 -34.45L36.55 -28.45L12.65 -28.45Q12.3 -28.45 12.3 -28.1L12.3 -20.2L32.4 -20.2L32.4 -14.2L12.3 -14.2L12.3 -6.35Q12.3 -6 12.65 -6L36.55 -6L36.55 0L11.8 0" />
</g>
<g id="PathID_8" transform="matrix(0.47727, 0, 0, 0.47727, 174.75, 32.85)" opacity="1">
</g>
<g id="PathID_9" transform="matrix(0.47727, 0, 0, 0.47727, 208.65, 32.85)" opacity="1">
<path style="fill:#313131;fill-opacity:1" d="M36.55 -5.5Q36.55 -3.2 34.95 -1.55Q33.35 0 31 0L6.25 0L6.25 -6L30.2 -6Q30.5 -6 30.5 -6.35L30.5 -13.9Q30.5 -14.2 30.2 -14.2L10.1 -14.2Q8.55 -14.2 7.4 -15.35Q6.25 -16.5 6.25 -18.05L6.25 -28.95Q6.25 -31.25 7.85 -32.85Q9.45 -34.45 11.8 -34.45L36.55 -34.45L36.55 -28.45L12.65 -28.45Q12.3 -28.45 12.3 -28.1L12.3 -20.55Q12.3 -20.2 12.65 -20.2L32.75 -20.2Q34.3 -20.2 35.6 -18.75Q36.55 -17.95 36.55 -16.4L36.55 -5.5" />
</g>
<g id="PathID_10" transform="matrix(0.47727, 0, 0, 0.47727, 208.65, 32.85)" opacity="1">
</g>
<g id="PathID_11" transform="matrix(0.47727, 0, 0, 0.47727, 242.6, 32.85)" opacity="1">
<path style="fill:#313131;fill-opacity:1" d="M20.25 -28.45L20.25 0L14.2 0L14.2 -28.45L4.15 -28.45L4.15 -34.45L30.3 -34.45L30.3 -28.45L20.25 -28.45" />
</g>
<g id="PathID_12" transform="matrix(0.47727, 0, 0, 0.47727, 242.6, 32.85)" opacity="1">
</g>
<g id="PathID_13" transform="matrix(0.47727, 0, 0, 0.47727, 272.45, 32.85)" opacity="1">
<path style="fill:#313131;fill-opacity:1" d="M30.5 -28.1Q30.5 -28.45 30.2 -28.45L12.65 -28.45Q12.3 -28.45 12.3 -28.1L12.3 -6.35Q12.3 -6 12.65 -6L30.2 -6Q30.5 -6 30.5 -6.35L30.5 -28.1M36.55 -5.5Q36.55 -3.2 34.95 -1.55Q33.35 0 31 0L11.8 0Q9.5 0 7.85 -1.6Q6.25 -3.2 6.25 -5.5L6.25 -28.95Q6.25 -31.25 7.85 -32.85Q9.45 -34.45 11.8 -34.45L31 -34.45Q33.35 -34.45 34.95 -32.85Q36.55 -31.25 36.55 -28.95L36.55 -5.5" />
</g>
<g id="PathID_14" transform="matrix(0.47727, 0, 0, 0.47727, 272.45, 32.85)" opacity="1">
</g>
<g id="PathID_15" transform="matrix(0.47727, 0, 0, 0.47727, 306.4, 32.85)" opacity="1">
<path style="fill:#313131;fill-opacity:1" d="M30.5 -28.1Q30.5 -28.45 30.2 -28.45L12.3 -28.45L12.3 -20.2L30.2 -20.2Q30.5 -20.2 30.5 -20.55L30.5 -28.1M29.5 0L19.6 -14.2L12.3 -14.2L12.3 0L6.25 0L6.25 -34.45L31 -34.45Q33.35 -34.45 34.95 -32.85Q36.55 -31.25 36.55 -28.95L36.55 -19.7Q36.55 -17.5 34.45 -15.7Q33.3 -14.2 31 -14.2L26.7 -14.2L36.55 0L29.5 0" />
</g>
<g id="PathID_16" transform="matrix(0.47727, 0, 0, 0.47727, 306.4, 32.85)" opacity="1">
</g>
<g id="PathID_17" transform="matrix(0.47727, 0, 0, 0.47727, 340.35, 32.85)" opacity="1">
<path style="fill:#313131;fill-opacity:1" d="M30.5 -28.1Q30.5 -28.45 30.2 -28.45L12.65 -28.45Q12.3 -28.45 12.3 -28.1L12.3 -17.7L30.5 -17.7L30.5 -28.1M30.5 0L30.5 -11.7L12.3 -11.7L12.3 0L6.25 0L6.25 -28.95Q6.25 -31.25 7.85 -32.85Q9.45 -34.45 11.8 -34.45L31 -34.45Q33.35 -34.45 34.95 -32.85Q36.55 -31.25 36.55 -28.95L36.55 0L30.5 0" />
</g>
<g id="PathID_18" transform="matrix(0.47727, 0, 0, 0.47727, 340.35, 32.85)" opacity="1">
</g>
<g id="PathID_19" transform="matrix(0.47727, 0, 0, 0.47727, 374.3, 32.85)" opacity="1">
<path style="fill:#313131;fill-opacity:1" d="M30.75 0L12.3 -24.35L12.3 0L6.25 0L6.25 -34.45L12.05 -34.45L30.5 -10.15L30.5 -34.45L36.55 -34.45L36.55 0L30.75 0" />
</g>
<g id="PathID_20" transform="matrix(0.47727, 0, 0, 0.47727, 374.3, 32.85)" opacity="1">
</g>
<g id="PathID_21" transform="matrix(0.79545, 0, 0, 0.79545, 48.3, 93.4)" opacity="1">
<path style="fill:#313131;fill-opacity:1" d="M8.25 -21.2L8.45 -21.15L8.5 -21.2Q8.8 -21 9.05 -20.45L9.55 -20.8L9.95 -20.35L10.7 -20.7L11.5 -20.35L12.6 -20.45L16.85 -20.35L17.2 -19.9L18.2 -19.9L18.9 -19.3L20.2 -19.8L20.95 -19.8L21.5 -19.45L22.2 -19.45L22.6 -19.1L23.35 -19.1L23.75 -18.7L23.95 -18.65Q24.3 -18.6 24.8 -18.2L24.85 -18.2Q25.25 -18.4 26.15 -18.55L27.1 -17.7L27.4 -17.1L29.3 -15.9L31.4 -13.95L30.95 -13.1L31.75 -12.45L31.2 -10.55L31.05 -8.85L30.45 -7.9Q30.25 -7.55 29.85 -6.4L28.8 -5.85L28.6 -5.3L24.05 -2.25L23.55 -2.4L23.5 -2.05L18.7 -0.5L17.95 0.1L16.65 0.1L16.3 0.45L15.6 0.45L15.25 0.85L14.35 0.6L12.25 1.25L12.05 1.2L11.45 1.25L9.8 1.65L7.1 1.35L5.8 1.75L4.1 1.35L3.85 1.35L3.5 1.3L3.15 1.3L2.55 0.95L1.8 0.45L0.75 -1L0.85 -3.3L1.5 -3.45L1.95 -3.85L2.6 -4.2Q3 -4.65 3.95 -5.3L7.25 -5.3L7.25 -3.9L7.15 -3.8L7.5 -3.35L6.5 -2.2L6.25 -1.7L6.3 -1.65L6.95 -1.2L7.2 -1.7L8.45 -2L9.8 -1.65L11.05 -1.55L11.95 -2L12.85 -2L13.8 -2.2L14.3 -2.45L15.3 -2.45L15.8 -2.55L17.9 -3.4L18.55 -3.55L19 -3.8Q19.3 -4 20.4 -4.2L20.9 -4.6L21.3 -4.5L23.05 -5.5L23.6 -6.7L24.5 -6.9L24.45 -7.35L24.9 -7.7L24.7 -7.8L25.2 -9.4L25.1 -9.95L25.4 -10.7L24.85 -11.8L25.1 -12.75L24.6 -13.75L24 -14L23.4 -15.05L22 -14.8L21.45 -15.95L21.1 -16.3Q20.6 -16.4 20.2 -16.75L19.25 -15.95L18.65 -16.35L17.35 -16.65L16.95 -17.3L16.75 -16.95L16.1 -17.2L15.6 -16.75L14.65 -17.2L14.2 -16.5L13.25 -17.05L13.15 -16.5L11.55 -16.5L11.3 -16.9L10.65 -17.05L9.75 -16.6L8.5 -16.7Q8.25 -16.75 7.65 -17.2L7.1 -16.95L7.1 -17.2L7.05 -16.8L4.9 -16.6L4.8 -16.85L4.4 -16.75L3.2 -17.75L2.9 -18.5L2.35 -19.45L3.6 -20.8L3.8 -20.8L4.25 -21.6L4.75 -21.6L5.2 -22.15L6.45 -22.95L7.75 -24.1L8.5 -24.6L9.35 -24.95L10.15 -25.75L10.85 -26.1L11.6 -26.7L12.75 -27.4L13.8 -28.55L15 -29.25Q15.35 -29.55 15.75 -29.7L15.9 -29.95L17.6 -31.2L17.95 -31.2L18.5 -31.85Q19.3 -32.25 19.6 -32.5L19.75 -32.95L20.3 -33.25L20.4 -33.4Q21.65 -34.3 22.45 -35.05L22.35 -35.05L22.35 -35.25L22.85 -35.25L22.9 -35.5L24.15 -35.9L26.35 -37.15L27.05 -36.65L28 -36.75L29.35 -35.3L29.35 -34.85L29.9 -34.35L30.3 -33L30.15 -32.75L30.3 -32.75L29.95 -28.2L29.1 -27.35L28.15 -26.85L26.95 -25.35L25.9 -25.05L24.85 -24.1L23.05 -24.85L22.6 -26.25L23.15 -26.85L22.8 -27.6L23.4 -28.8Q23.3 -29.45 23.45 -29.4L22.25 -29.25L21.4 -29.6L20.45 -29.35L20.6 -29L19.25 -27.8L18.7 -27.8L14.15 -24.95L13.25 -24.05L12.75 -23.95L12.6 -23.55L11.45 -23.3L11.55 -23.1L10.4 -22.6L8.5 -21.2L8.25 -21.2" />
</g>
<g id="PathID_22" transform="matrix(0.79545, 0, 0, 0.79545, 48.3, 93.4)" opacity="1">
</g>
<g id="PathID_23" transform="matrix(0.79545, 0, 0, 0.79545, 76.1, 93.4)" opacity="1">
<path style="fill:#313131;fill-opacity:1" d="M14.7 -21.75L15.05 -22L14.75 -21.9L15.05 -23.05L14.8 -23.45L15.3 -24.95L14.8 -25.35L14.8 -26.05L15.3 -26.4L15.3 -26.5L14.95 -26.9L15.3 -27.8L16.05 -29.5L15.9 -29.4L12.15 -28.6L11.1 -28.75L10.75 -28.35L9.9 -28.15L10.05 -27.4L8.4 -26.2L7.35 -25.25L6.95 -25.4L6.75 -25.15Q6.65 -25.05 6.35 -24.25L5.1 -23.9L4.8 -23.35L3.8 -23.55L3.3 -24.45L1.9 -25.65L1.25 -27.6L1.5 -28.6L2.25 -28.6Q2.5 -28.9 3.75 -29.85L4.1 -30.9L5.25 -31.2L5.25 -31.6L6.2 -31.7L6.4 -32.25L8.35 -32.35L9.2 -32.45L9.5 -32.25L9.7 -32.7L11.15 -32.55L11.6 -32.7L11.95 -32.7L11.8 -32.35L12.95 -33.15L13.85 -33L14.75 -33L15.3 -33.5L15.95 -33.35L17.1 -33.45L17.2 -33.8L18.2 -33.8L18.65 -33.5L19.3 -33.5L19.4 -33.35L20.35 -33.6L22.05 -34.05L22.5 -33.7L23.45 -33.8L24.5 -33.55L25.25 -33.15L25.15 -32.95L26.4 -34.15L28.25 -33.95Q29.8 -34.4 30.6 -34.4L31.55 -34.25L33.1 -34.9L34.9 -35.95L36.6 -36.15L36.5 -33.95L35.4 -32.45L33.85 -31.7L33.5 -31.05L31.9 -30.3L31.65 -29.85L30.05 -29.25L28.3 -29.05L27.25 -28.85L26.75 -29.3L25.65 -29.05L25.9 -29.95L25.3 -30L24.9 -29.85L24.2 -30.1L23.45 -29.85L23.05 -30.1L22.8 -29.95Q22.65 -29.5 22.15 -28.55L21.75 -27.85L21.55 -26.35L20 -23L19.9 -22.6L19.3 -21.8Q19.15 -21.55 19.15 -20.9L19.15 -19.65L18.75 -18.65L18.2 -17.75L17.8 -16.3L18.15 -15.6L17.75 -13.8L17.55 -13.4L17.7 -12.8L17.35 -12.55L17.55 -12.5L17.35 -11.2L17.45 -10.85L17.05 -9.7L17 -8.65L16.5 -7.1L16.15 -5.15L14.7 -2L14.7 -1.85L15 -1.1L14.15 -0.2Q14 0 13.45 0.1L13.45 0.05L11.7 1.35L10.45 1.25L10.3 0.7L9.45 0.85L8.25 0L8.95 -2.05L9.35 -2.15L10.35 -3.8Q10.55 -4.8 11.15 -5.15L11.25 -6.15L11.55 -7.85L12.15 -9.25L12.75 -11L12.4 -12.35L12.65 -13.75L13.1 -15.2Q13.25 -16.55 13.55 -17.2Q13.85 -17.85 14 -17.85L13.55 -18.35L13.85 -19L13.7 -19.35Q14.1 -20.7 14.5 -21.1L14.5 -21.8L14.75 -21.9L14.7 -21.75" />
</g>
<g id="PathID_24" transform="matrix(0.79545, 0, 0, 0.79545, 76.1, 93.4)" opacity="1">
</g>
<g id="PathID_25" transform="matrix(0.79545, 0, 0, 0.79545, 100.55, 93.4)" opacity="1">
<path style="fill:#313131;fill-opacity:1" d="M7.2 -14.45L7.5 -14.45L7.35 -14.55L7.25 -14.5L7.4 -14.85L7.9 -14.8L7.9 -14.7L8.45 -15.05L8.1 -15.55L8.7 -16.6L9.6 -16.9L9.8 -17.45Q9.85 -17.7 10.55 -18.3Q11.05 -20.25 11.5 -19.7L11.3 -19.7L12.95 -22.15L13 -22.05L14.3 -23.8L14.2 -23.8L15.05 -25.75L15.2 -25.75L16.55 -28.25L16.75 -28.25L17.85 -30.05L18.2 -30.15L18.7 -31.1L19.1 -32.2L19.85 -32.75L20.4 -34.15L20.6 -34.2L20.7 -35.25L21.15 -35.25L21.2 -35.6L21.4 -35.6L21.6 -36.05L23.65 -37.25L24.8 -38L26.4 -37.8L27.2 -36.55L27.1 -35.4L27.2 -34.8L27.4 -33.4L27.6 -32.75L27.6 -32L28.2 -31.45L28.2 -30.9L28.95 -25L29.6 -23.6L28.8 -23.6Q29.25 -22.85 29.5 -21.65L29.75 -21.5L30.5 -22.15L31.5 -21.8L32 -21.8L31.95 -21.7L32.1 -21.8L32.85 -21.6L34.1 -22.5L35.85 -22.4L35.95 -22.75L37.6 -22.4L39.45 -22.9L39.8 -23.25Q40.15 -23.6 40.65 -23.75L42.05 -24.1L42.55 -23.4L43.45 -23.4L43.95 -21.85Q43.4 -20.65 42.6 -20L42.35 -20.15L40.65 -18.25L39.45 -17.4L36.95 -17.4L35.55 -17.05L34.4 -17.3L31.95 -16.3L31.8 -16.4L30.95 -16L31.25 -11.45L31.4 -11.45L31.4 -10.55L31.05 -10.4L31.35 -10.3L31.45 -9.1L31.75 -8.75L31.5 -8.25L31.95 -7.75L32.2 -5.75L32.2 -5.65L32.65 -5.75L33 -5L32.9 -4.1L32.65 -4.1L32.75 -1.6Q32.2 -0.7 31.55 0L30.8 0.1L30.5 0.85L30.05 0.75L30.15 1L29.65 1.7Q29.4 1.95 27.85 2.8L26.75 2Q26.5 1.85 26.2 1.1L25.9 0.45L25.9 -0.95L25.45 -3L25.2 -3.45L25.4 -4.9L25.2 -6.2L25.7 -7.15L25.1 -9.15Q25.35 -9.7 25.4 -10.25L25.2 -10.65L25.4 -11.8Q25.4 -12.15 25.1 -13.65L25.55 -14.65L25.45 -15.9L25.15 -16.15L24.15 -15.95L24.15 -16.15L24.1 -16.1L24.2 -15.35L23.15 -15.5L22.75 -15.4L22.65 -15.3Q21.4 -14.7 20.1 -14.7L19.5 -14.8L18.1 -14.35L16.95 -14.15L16.8 -13.45L15.9 -13.85L15.9 -13.45L15.4 -13.45L14.65 -12.7L13.95 -12.7L14.35 -11.7L12.95 -11.9L11.7 -11.15L11.2 -10.65L10.3 -10.9L9.5 -10.2L8.95 -10.2L8.95 -9.65L7.9 -9.45L7.6 -8.85L7.2 -8.4L6.65 -7.25L6.8 -7.1Q6.65 -6.45 6 -5.8L5.9 -4.45L5.2 -4L5.3 -3.4L4.95 -3.4L4.95 -3.1L4.15 -2.5L4.15 -2.35Q3.85 -2.05 3.35 -1.15L3.25 -1.15L2.55 0.25L2.55 0.2L1.9 0.7L1.8 1.05Q1.75 1.4 0.9 2.1L-0.55 1.6Q-0.7 1.2 -0.9 1.05L-0.8 0.35L-0.8 0.15L-0.65 -0.15Q-0.85 -0.5 -0.9 -2L-1 -2.6L-0.9 -2.55L-0.9 -2L-0.65 -2.4L-0.9 -2.55L-0.9 -2.75L-0.8 -2.75L-1 -3.25L-0.8 -3.7L-1.05 -4.3L-0.9 -4.6L-1 -6.15L0 -6.8L1.55 -5.75L1.9 -5.75L4.5 -8.7L4.1 -8.85L4.15 -9.1L4.05 -8.85L4.1 -8.85L3.8 -8.5L3.4 -8.6L3.15 -8.4Q2.8 -8.2 1.55 -8.05L0.45 -9.55Q1.15 -11.5 1.5 -11.65Q1.5 -11.8 2.55 -12.85L2.9 -12.8L3.95 -14.45L4.25 -14.45L6.75 -14.85L7 -14.45L7.25 -14.5L7.2 -14.45M21.55 -28.1L21.5 -28.2L21.45 -28.1L21.25 -28.05L20.95 -29.65L20.8 -29.6L20.8 -29.45L19.7 -28.35L19.5 -28.35L18.4 -26.75L18.35 -26.75L17.75 -25.55L17.75 -25.3L17.4 -24.75Q17.15 -24.35 16.65 -24.05L16.25 -23.85L16 -23.25Q15.85 -22.9 15.75 -21.15L15.25 -21.25L15.2 -20.85L14.45 -20.4L14.45 -20.5L14.35 -20.35L14.45 -20.4L14.45 -19.45L13.5 -19.05L12.95 -17.45L12.6 -16.6L12.15 -16.1L11.95 -16.1L12.1 -16.05L12.05 -16L12.15 -16L12.15 -16.05L12.1 -16.05L12.15 -16.1L13.4 -16.1L13.9 -15.8L15.65 -16.9L17.35 -17L17.45 -16.7L17.8 -17.05L17.35 -17L17.25 -17.3L18.5 -17.3L20.2 -17.75L20.6 -17.6L21.1 -17.8L21.1 -17.9L22.6 -18.4L22.6 -18.55L24.4 -19L24.5 -18.9L24.5 -19L24.4 -19L23.85 -19.5L23.85 -21.75L24.4 -22.7L24.35 -22.75L23.5 -22.4L22.3 -24.5L23.55 -24.2L23.55 -24.75L22.25 -24.6L22.3 -24.5L22 -24.6L22.15 -25.25L21.7 -25.85L22 -26.35L21.2 -27.55L21.45 -28.1L21.55 -28.1" />
</g>
<g id="PathID_26" transform="matrix(0.79545, 0, 0, 0.79545, 100.55, 93.4)" opacity="1">
</g>
<g id="PathID_27" transform="matrix(0.79545, 0, 0, 0.79545, 132.95, 93.4)" opacity="1">
<path style="fill:#313131;fill-opacity:1" d="M9.2 -24.65L9.2 -24.75L8.75 -24.45L8.9 -24.3L8.75 -24.15Q8.35 -23.7 8.1 -23.55L7 -22.85L5.6 -22.85L5.3 -23.55L4.65 -23.9L5.65 -26.2L6.65 -26.9Q6.75 -27.2 7.1 -27.65L7.4 -27.8Q7.55 -28 8.05 -28.35L7.5 -29.05L7.85 -29.95Q7.95 -30.2 8.05 -31.1L7.85 -31.65L8.4 -32.4L8.7 -32.5L8.75 -32.55Q8.85 -32.75 10.1 -33.5L10.2 -33.75Q11.55 -34.45 13.2 -34.9L13.75 -34.6L14.35 -34.8L14.5 -34.6L14.95 -35.25L15.5 -35.25L15.65 -35.55L16.9 -35.7L18.7 -35.55L18.45 -34.55L18.7 -34.35L19.25 -34.7L19.75 -34.3L20.7 -34L21.45 -34.45L22.05 -33.75L22.55 -33.55L23.15 -33.55L23.3 -33.35L23.65 -33.65L24.45 -33.35L27 -32.9L27.2 -32.75L29.3 -32.9Q30 -32.5 31.45 -32.2L31.7 -31.2L31.45 -30.6L31.9 -29.6L29.45 -26.35L28.6 -26.05L25.6 -23.6L24.4 -22.8L21.2 -20.95L20.5 -20.35L19.95 -20.6L19.25 -20.05L18.9 -19.4L19.05 -18L19.9 -14.45L22.7 -10.35L24 -8.75L23.7 -8.2L24.45 -7.85L25.1 -7.35L25.25 -7.3L26.1 -7.2L26.95 -6.1L27.3 -6.1L27.55 -5.9L27.55 -6.2L28.7 -6L29.25 -6L30.1 -5.5L31.15 -5.25L32.6 -4.05L33.15 -4.05L33.45 -2.95L33.85 -2.7L33.85 -1.75L32.15 -0.45L30.8 -0.2L29.6 -0.55L29.6 -0.65L28.6 -0.9L26.7 -1.8L25.55 -2.8L24.9 -3.15Q24.4 -3.35 23.95 -3.85L23.25 -3.85L22.55 -4.7L21.75 -4.85L21.75 -5.15L21.35 -5.35L20.95 -5.2Q19.7 -6.15 19.65 -6.3L18.55 -6.4L18.35 -7.35L18.05 -7.6L16.85 -7.7L16.2 -8.5L15.35 -8.8L15.35 -9.8Q15.9 -9.45 16.4 -9.95L15.35 -9.95L15.35 -9.8Q15 -9.5 14.65 -9.7L14.35 -10.35L13.9 -10.5L13.8 -11.4L12.95 -12.3L13.8 -13.9L12.65 -14L12.35 -15.05L12.3 -15.25L11.65 -15L11.6 -14.3L11.1 -13.9L11.1 -13.4L10.7 -12.75L11.25 -11.7L10.85 -11.5Q10.7 -10.45 10.35 -9.65L10.45 -9.1L10.15 -8.75L10.25 -7.7L10 -7.7L10.15 -7.1L9.8 -5.25L9.8 -3.3L9.55 -2.9L9.35 -1.55L9.1 -0.4L9 0.6L8.3 1.85L8.2 2.25Q8.2 2.55 7.75 3.05L7.85 3.15L7.1 5.05L6.6 5.4L6.1 6.4Q5.95 6.75 5.65 7L5.15 7.45L5.15 8.05L4.45 8.15L4.55 8.3L4.15 9.5L1.95 11.1L0.35 10.85L-0.1 10.25L-0.25 10.1L-0.15 10.25L-0.35 10.25L-0.1 9.35L-0.85 8.9L-0.75 7.85L-1.05 7.6L-0.8 6.7Q-0.65 6.3 -0.1 5.9L-0.25 5.7Q0.4 4.35 1.7 3.5L3.25 3.8L3.65 3.8L3.65 3.95L4.25 4.15L4.35 3.8L3.65 3.8L3.65 3.3L4.2 3.1L4.2 2.55L4.8 2L4.55 2.1L4.55 1L5.05 1L5.1 0.95L4.75 0.35L5.2 -0.55L5.5 -2.7L5.65 -2.7L5.65 -2.85L6 -2.95L5.65 -3.75L6.35 -4.75L6.45 -4.75L6.15 -6.35L6.55 -6.2L6.6 -6.6L6.45 -6.9L6.75 -8.25Q6.85 -8.6 7.25 -9.05L7.05 -10.3L7.35 -10.3L7.15 -11.1L7.35 -11.1L8.35 -15.9L8.95 -16.3L8.85 -16.85L9.2 -17.95L9.1 -18.3L9.25 -19.35L9.65 -19.55L9.55 -20.2L9.85 -20.55L9.75 -21.35L10.05 -21.9L9.55 -22.7L9.95 -23.05L10.1 -22.95L10.1 -23.2L9.95 -23.05L9.4 -23.35L9.1 -24.1L8.9 -24.3L9.2 -24.65M13.6 -24.4L13.6 -24.25L13.7 -24.3L14.15 -23.85L13.85 -23.2L14.15 -23L13.35 -21.75L13.35 -21.2L12.75 -20.05L12.55 -19.4L12.8 -19.75L13.1 -19.8L13.45 -20.8L14.2 -21.05L14.8 -21.6L15.45 -21.65L15.55 -22.1L17.25 -22.75L17.8 -22.15L20.8 -24.2L21.75 -24.7L22.45 -25.3L23 -25.5Q23.1 -25.5 23.55 -25.95L23.85 -25.85L24 -26.3L25.2 -27L25.8 -27.6L26.2 -27.9Q26.4 -28.05 26.6 -28.45Q26.6 -28.35 26.25 -28.8L21.95 -29.15L21.3 -29.55L21.3 -29.7L21.05 -29.85L21.05 -29.7L21.3 -29.55L21.3 -29.1L20 -28.6L16.5 -28.7L15.7 -28.55L15.5 -28.25L15.6 -27.3L14.35 -24.45L13.7 -24.3L13.6 -24.4" />
</g>
<g id="PathID_28" transform="matrix(0.79545, 0, 0, 0.79545, 132.95, 93.4)" opacity="1">
</g>
<g id="PathID_29" transform="matrix(0.79545, 0, 0, 0.79545, 161.05, 93.4)" opacity="1">
<path style="fill:#313131;fill-opacity:1" d="M7.2 -14.45L7.5 -14.45L7.35 -14.55L7.25 -14.5L7.4 -14.85L7.9 -14.8L7.9 -14.7L8.45 -15.05L8.1 -15.55L8.7 -16.6L9.6 -16.9L9.8 -17.45Q9.85 -17.7 10.55 -18.3Q11.05 -20.25 11.5 -19.7L11.3 -19.7L12.95 -22.15L13 -22.05L14.3 -23.8L14.2 -23.8L15.05 -25.75L15.2 -25.75L16.55 -28.25L16.75 -28.25L17.85 -30.05L18.2 -30.15L18.7 -31.1L19.1 -32.2L19.85 -32.75L20.4 -34.15L20.6 -34.2L20.7 -35.25L21.15 -35.25L21.2 -35.6L21.4 -35.6L21.6 -36.05L23.65 -37.25L24.8 -38L26.4 -37.8L27.2 -36.55L27.1 -35.4L27.2 -34.8L27.4 -33.4L27.6 -32.75L27.6 -32L28.2 -31.45L28.2 -30.9L28.95 -25L29.6 -23.6L28.8 -23.6Q29.25 -22.85 29.5 -21.65L29.75 -21.5L30.5 -22.15L31.5 -21.8L32 -21.8L31.95 -21.7L32.1 -21.8L32.85 -21.6L34.1 -22.5L35.85 -22.4L35.95 -22.75L37.6 -22.4L39.45 -22.9L39.8 -23.25Q40.15 -23.6 40.65 -23.75L42.05 -24.1L42.55 -23.4L43.45 -23.4L43.95 -21.85Q43.4 -20.65 42.6 -20L42.35 -20.15L40.65 -18.25L39.45 -17.4L36.95 -17.4L35.55 -17.05L34.4 -17.3L31.95 -16.3L31.8 -16.4L30.95 -16L31.25 -11.45L31.4 -11.45L31.4 -10.55L31.05 -10.4L31.35 -10.3L31.45 -9.1L31.75 -8.75L31.5 -8.25L31.95 -7.75L32.2 -5.75L32.2 -5.65L32.65 -5.75L33 -5L32.9 -4.1L32.65 -4.1L32.75 -1.6Q32.2 -0.7 31.55 0L30.8 0.1L30.5 0.85L30.05 0.75L30.15 1L29.65 1.7Q29.4 1.95 27.85 2.8L26.75 2Q26.5 1.85 26.2 1.1L25.9 0.45L25.9 -0.95L25.45 -3L25.2 -3.45L25.4 -4.9L25.2 -6.2L25.7 -7.15L25.1 -9.15Q25.35 -9.7 25.4 -10.25L25.2 -10.65L25.4 -11.8Q25.4 -12.15 25.1 -13.65L25.55 -14.65L25.45 -15.9L25.15 -16.15L24.15 -15.95L24.15 -16.15L24.1 -16.1L24.2 -15.35L23.15 -15.5L22.75 -15.4L22.65 -15.3Q21.4 -14.7 20.1 -14.7L19.5 -14.8L18.1 -14.35L16.95 -14.15L16.8 -13.45L15.9 -13.85L15.9 -13.45L15.4 -13.45L14.65 -12.7L13.95 -12.7L14.35 -11.7L12.95 -11.9L11.7 -11.15L11.2 -10.65L10.3 -10.9L9.5 -10.2L8.95 -10.2L8.95 -9.65L7.9 -9.45L7.6 -8.85L7.2 -8.4L6.65 -7.25L6.8 -7.1Q6.65 -6.45 6 -5.8L5.9 -4.45L5.2 -4L5.3 -3.4L4.95 -3.4L4.95 -3.1L4.15 -2.5L4.15 -2.35Q3.85 -2.05 3.35 -1.15L3.25 -1.15L2.55 0.25L2.55 0.2L1.9 0.7L1.8 1.05Q1.75 1.4 0.9 2.1L-0.55 1.6Q-0.7 1.2 -0.9 1.05L-0.8 0.35L-0.8 0.15L-0.65 -0.15Q-0.85 -0.5 -0.9 -2L-1 -2.6L-0.9 -2.55L-0.9 -2L-0.65 -2.4L-0.9 -2.55L-0.9 -2.75L-0.8 -2.75L-1 -3.25L-0.8 -3.7L-1.05 -4.3L-0.9 -4.6L-1 -6.15L0 -6.8L1.55 -5.75L1.9 -5.75L4.5 -8.7L4.1 -8.85L4.15 -9.1L4.05 -8.85L4.1 -8.85L3.8 -8.5L3.4 -8.6L3.15 -8.4Q2.8 -8.2 1.55 -8.05L0.45 -9.55Q1.15 -11.5 1.5 -11.65Q1.5 -11.8 2.55 -12.85L2.9 -12.8L3.95 -14.45L4.25 -14.45L6.75 -14.85L7 -14.45L7.25 -14.5L7.2 -14.45M21.55 -28.1L21.5 -28.2L21.45 -28.1L21.25 -28.05L20.95 -29.65L20.8 -29.6L20.8 -29.45L19.7 -28.35L19.5 -28.35L18.4 -26.75L18.35 -26.75L17.75 -25.55L17.75 -25.3L17.4 -24.75Q17.15 -24.35 16.65 -24.05L16.25 -23.85L16 -23.25Q15.85 -22.9 15.75 -21.15L15.25 -21.25L15.2 -20.85L14.45 -20.4L14.45 -20.5L14.35 -20.35L14.45 -20.4L14.45 -19.45L13.5 -19.05L12.95 -17.45L12.6 -16.6L12.15 -16.1L11.95 -16.1L12.1 -16.05L12.05 -16L12.15 -16L12.15 -16.05L12.1 -16.05L12.15 -16.1L13.4 -16.1L13.9 -15.8L15.65 -16.9L17.35 -17L17.45 -16.7L17.8 -17.05L17.35 -17L17.25 -17.3L18.5 -17.3L20.2 -17.75L20.6 -17.6L21.1 -17.8L21.1 -17.9L22.6 -18.4L22.6 -18.55L24.4 -19L24.5 -18.9L24.5 -19L24.4 -19L23.85 -19.5L23.85 -21.75L24.4 -22.7L24.35 -22.75L23.5 -22.4L22.3 -24.5L23.55 -24.2L23.55 -24.75L22.25 -24.6L22.3 -24.5L22 -24.6L22.15 -25.25L21.7 -25.85L22 -26.35L21.2 -27.55L21.45 -28.1L21.55 -28.1" />
</g>
<g id="PathID_30" transform="matrix(0.79545, 0, 0, 0.79545, 161.05, 93.4)" opacity="1">
</g>
<g id="PathID_31" transform="matrix(0.79545, 0, 0, 0.79545, 202.85, 93.4)" opacity="1">
<path style="fill:#313131;fill-opacity:1" d="M32.3 -34.7Q33.8 -34.3 34.5 -34.2L35.1 -32.35L34.5 -31.1L32.85 -27.3L32.85 -26.6L32.05 -26.3L31.95 -25.85L31.7 -25.85Q31.95 -26.15 32.05 -24.6L31.65 -24.5L31.55 -23.2L31.05 -22.5L30.85 -21.35L30.6 -21.3L30.7 -20.75L30.45 -20.2L30.45 -19.25L30.25 -19L30.25 -18.25L29.9 -17.9L32.35 -17.55L32.5 -17.4L33.45 -17.55Q33.75 -17.55 33.85 -17.65L34.7 -18.2L35.75 -18.05L36.75 -18.6Q38.1 -18.95 38.9 -19.35L40.65 -19.05L40.65 -16.7L39.85 -15.5L39.85 -14.7L38.65 -14.8L38.1 -14.6L37.4 -14.7L36.6 -14.35L36.4 -14.6L36.15 -14L34.3 -13.65L33.25 -13.1L32.05 -13.1L30.3 -12.7L30.2 -12.95L30.05 -12.8L29.7 -12.2L29.7 -8.65L29.45 -8.4L29.8 -7.75L29.7 -6.7L29.9 -5.85L29.9 -5.3L30.05 -5.2L31.1 -5.2L32.45 -4.85L32.65 -3.35L31.8 -2.6L31.65 -2L30.75 -0.7L30.55 0.15L29.85 0.7L29.6 1.45L27.7 2.6Q27.4 3.1 27.05 3.35L26.5 3.85L26.2 4.1L23.85 4.7L23.95 3L24.6 2.6L24.8 1.95L25.05 1.75L25.15 1.65L24.5 1.05L25.1 -1.7L25 -2.1L25.15 -2.85L25 -3.3L25.5 -4.95L25.15 -6.55L25.3 -7.05L25.4 -10.4L25.5 -11.2L25.4 -11.4L25.4 -11.8L24.9 -12.75L24.9 -12.4L22.75 -12.6L22.55 -12.6L21.55 -12.25L21.55 -11.8L19.6 -11.45L19.3 -11.7L19.2 -11.45L18.35 -11.6L16.95 -11.35L14.65 -10.5L14.55 -10.25L14.55 -6.55L14.2 -6.2L16 -5.6L16 -4.25L16.1 -3.6L15.6 -3.15L15.45 -2.4L15.5 -1.6L15.8 -1.35Q15.45 -0.25 14.85 0.25L14.55 0.25L14.55 0.3L13.9 0.8L13.35 1.85L13.1 1.85L12.45 2.45L10.95 2.2L10.1 2.2L9.25 1.45L9.4 0.65Q9.5 0.25 9.95 -0.15L10.05 -1L9.8 -1.8L10.05 -3.35L9.95 -4.3L10.25 -5.55L10.15 -6.85L10.25 -6.95L10.25 -7.5L10.6 -8.3L10.6 -8.5L10.25 -9.15L10.6 -10.35L10.3 -10.6L10 -10.65L9.55 -10.2L9.1 -10.45Q9 -10.2 8.3 -10.15L7.85 -9.7L4.65 -9.1L4.6 -9.1L4.1 -8.65L3 -9.1L2.05 -8.75L1.45 -9.65L1.75 -10.25L1.45 -10.45L1.9 -12.55L2.8 -13L3.05 -13.3L4.95 -13.7L6.05 -13.45L6.15 -13.3L6.9 -13.7L7.9 -13.6L8.65 -13.7L9.1 -13.55L9.2 -13.8L9.95 -13.95L10.1 -13.85L10.75 -14.1Q11 -13.8 11.4 -13.7L11.5 -13.9L11.3 -15.65Q11.95 -16.6 12.1 -16.65L11.75 -16.8L12.25 -17.9L11.75 -19.25L12.1 -21L11.85 -22.95L12.25 -23.35L12.1 -23.6L12.45 -24.5L12.3 -25.45L11.95 -25.4Q11.65 -25.4 11.35 -25.2Q11.05 -25.05 10.5 -24.45L10 -24.6L9.8 -24.3Q9.45 -24 9.15 -23.9L8.7 -23.75L8.9 -23.05L7.7 -21.4L7.45 -22.1Q7.55 -21.75 6.65 -20.95L6.1 -21.2L5.75 -21L5.65 -20.8L4.95 -20.35L4.95 -19.8L2.65 -20.3L1.85 -21.2L1.85 -22.45L2.35 -23.9L3.65 -25.3L4.6 -25.7L5.25 -26.15L6.3 -26.65L6.6 -27.05L7.6 -27.2L7.9 -27.6L8.55 -27.6L9.6 -28.45L10.25 -28.45L10.5 -28.8L11.65 -28.8L12.45 -29.2L13 -29.9L13.75 -30Q13.9 -30 14.2 -30.2L14.3 -30.8L15.15 -30.9L15.55 -31.4L15.9 -31.4L16.5 -32.15L17.95 -32.65L19.5 -32.5Q20.15 -31.65 20.9 -31L20.9 -29.55L20.45 -28.7L19.3 -28.55L19.15 -27.8L18.55 -25.75L18.05 -23.65L18.05 -22.85L17.6 -22.4L17.7 -21.6L17.3 -21.1L16.5 -17.35L16.05 -16.75L16 -15.75L16 -15.7L16.65 -15.8L17.7 -15.45L18.75 -15.65L21.5 -15.9L22.3 -15.9L22.45 -15.7L23.65 -16L23.95 -16.25L25.05 -16.25L25.95 -16.05L26.25 -16.2L26.05 -17.35L26.6 -18.1L26.35 -18.8L26.7 -20L26.6 -21.1L26.85 -21.85L26.6 -22.55L26.85 -23.35Q27 -23.7 27.4 -24L26.9 -24.55L27.5 -26.05L27.5 -26.7L27.25 -28.05L27.5 -28.3L27.25 -28.6L28.1 -30.25L28.15 -30.3L28.3 -31.5L28.75 -31.8L28.95 -32.3L29.75 -32.65L31.2 -33.9L31.85 -33.9L32.3 -34.7" />
</g>
<g id="PathID_32" transform="matrix(0.79545, 0, 0, 0.79545, 202.85, 93.4)" opacity="1">
</g>
<g id="PathID_33" transform="matrix(0.79545, 0, 0, 0.79545, 236.25, 93.4)" opacity="1">
<path style="fill:#313131;fill-opacity:1" d="M16.05 -34.5L16.15 -34.45L16.15 -34.55L17.75 -34.9L18.2 -34.4L20.05 -34.15L20.4 -33.8L21 -33.9L21.2 -33.35L23.25 -33.9L23.25 -33.5L23.5 -33.45L24.6 -33.8L26.95 -33.3L29.1 -35.25L29.85 -35.55L30.95 -35.55L31.9 -34.95L32.05 -33.8L30.9 -32.1L30.8 -32.1L30.95 -32.5L29.3 -30.2L29.1 -29.8L27.6 -29.15L27.15 -29.4Q26.7 -28.8 25.75 -28.5L25.55 -28.6L25.2 -28L24.25 -27.65L23 -28.4L22.85 -28.95L21.45 -28.6L20.35 -29.05L18.55 -28.7L17.1 -28.7Q17 -27.45 16.7 -26.95L16.85 -26.75L16.55 -24.85L16.15 -23.65L16.15 -22.55L15.95 -22.55L15.95 -22.4L16.15 -22.55L19.45 -22.25L21.5 -22.65L23.05 -22.2L23.95 -23.3L26.05 -23.3L26.3 -22.7L27.25 -22.35L27.25 -21.1L26.65 -20.55L26.05 -19.35L24.55 -18.3L23.85 -18Q23.05 -17.65 22.1 -17.65L19.45 -18L18.1 -17.75L17 -17.4L15.9 -17.55L15.3 -17.4L14.8 -17.4L14.8 -17.45L14.7 -17.4L14.8 -17.4L14.5 -16.55L14.15 -15.45L13.55 -14.4L12.9 -10.7L12.45 -6.85L12 -5.85L11.95 -3.45L12.1 -3.35L13.8 -3.1L14.5 -2.7L15.55 -2.7L16 -2.35L16.65 -2.6L17.45 -2.3L19.6 -2.65L20.55 -2.6L20.8 -2.8L22.05 -2.8L23.05 -3.15L23.95 -3.05L24.1 -3.2L25.9 -3.65L25.5 -4.15L25.85 -4.9Q26.35 -6.5 27 -7.7L28.4 -7.6L29.3 -8.15L31.15 -8.15Q31.8 -7.2 33.15 -6.2L33.4 -4.6L33.4 -4L32.95 -3.4L32.95 -2.8L32.4 -2.45L32.4 -2.05Q31.5 -0.9 29.95 -0.6L29.85 -0.4Q29.7 -0.05 29.35 0.15L28.55 0.75L25.85 0.85L24.65 1.65L22.5 1.65L22.25 1.35L21.8 1.65L21.25 1.2L19.35 1.85L18.4 1.85L18 2.2L16.45 1.95L14.8 2.45L14.05 2.3L13.45 2.6L11.9 2.45L10 2.6L9.65 2.45L9.4 3.2L8.95 3.7L8.85 4Q8.8 4.2 8.25 4.8L8.25 5.1Q7.65 5.75 7.3 6.4L5.95 6.9L3.85 8L3.15 6.35L3.45 5.45L3.4 4.5L4.4 3L5.2 2.65L5.6 2L5 1.85L4.6 2.1L3.75 1.65L2 1.65L1.65 2.1L-0.45 1.95L-1.55 0.1L-1.55 -0.7L-1.6 -0.7L-1.75 -2.3L-1.05 -2.6L-0.9 -2.95L0.4 -4L1.65 -4L2.7 -4.4Q3.75 -4.4 5 -3.9L6 -4.3Q7.05 -4.3 7.75 -3.85L7.8 -4.05L7.65 -4.55L8.55 -9.5Q8.6 -10 9.05 -11.35L8.9 -12.05L9.35 -13L10.1 -17.45L9.25 -18.95Q9.7 -19.9 10.5 -20.6L10.3 -21.9L10.75 -22.05L11.15 -22.85L11 -23.4L11.35 -24.15L10.8 -24.9L11.15 -25.85L10.9 -26.4L10.9 -27.55L11.3 -27.85L10.8 -28.2L10.8 -29.25L9.5 -29.5L9.2 -29.5L6 -28.75L4.5 -29.05L4.1 -28.35L2.55 -28.25L1.5 -30.15L2 -31.2L2.35 -31.3L2.6 -31.8L4.05 -33L4.85 -33L5.35 -33.9L5.8 -33.8Q6 -34.05 6.6 -34.45L7.25 -34.45L8 -34.25L9.3 -34.15L11.1 -34.35L11 -34L11 -33.95L11.7 -34.35L12.3 -34L12.3 -34.2L13.85 -34.25L13.65 -34.1Q15.1 -35.3 16.4 -35.4L16.15 -34.55L16.05 -34.5" />
</g>
<g id="PathID_34" transform="matrix(0.79545, 0, 0, 0.79545, 236.25, 93.4)" opacity="1">
</g>
<g id="PathID_35" transform="matrix(0.79545, 0, 0, 0.79545, 263.95, 93.4)" opacity="1">
<path style="fill:#313131;fill-opacity:1" d="M9.2 -24.65L9.2 -24.75L8.75 -24.45L8.9 -24.3L8.75 -24.15Q8.35 -23.7 8.1 -23.55L7 -22.85L5.6 -22.85L5.3 -23.55L4.65 -23.9L5.65 -26.2L6.65 -26.9Q6.75 -27.2 7.1 -27.65L7.4 -27.8Q7.55 -28 8.05 -28.35L7.5 -29.05L7.85 -29.95Q7.95 -30.2 8.05 -31.1L7.85 -31.65L8.4 -32.4L8.7 -32.5L8.75 -32.55Q8.85 -32.75 10.1 -33.5L10.2 -33.75Q11.55 -34.45 13.2 -34.9L13.75 -34.6L14.35 -34.8L14.5 -34.6L14.95 -35.25L15.5 -35.25L15.65 -35.55L16.9 -35.7L18.7 -35.55L18.45 -34.55L18.7 -34.35L19.25 -34.7L19.75 -34.3L20.7 -34L21.45 -34.45L22.05 -33.75L22.55 -33.55L23.15 -33.55L23.3 -33.35L23.65 -33.65L24.45 -33.35L27 -32.9L27.2 -32.75L29.3 -32.9Q30 -32.5 31.45 -32.2L31.7 -31.2L31.45 -30.6L31.9 -29.6L29.45 -26.35L28.6 -26.05L25.6 -23.6L24.4 -22.8L21.2 -20.95L20.5 -20.35L19.95 -20.6L19.25 -20.05L18.9 -19.4L19.05 -18L19.9 -14.45L22.7 -10.35L24 -8.75L23.7 -8.2L24.45 -7.85L25.1 -7.35L25.25 -7.3L26.1 -7.2L26.95 -6.1L27.3 -6.1L27.55 -5.9L27.55 -6.2L28.7 -6L29.25 -6L30.1 -5.5L31.15 -5.25L32.6 -4.05L33.15 -4.05L33.45 -2.95L33.85 -2.7L33.85 -1.75L32.15 -0.45L30.8 -0.2L29.6 -0.55L29.6 -0.65L28.6 -0.9L26.7 -1.8L25.55 -2.8L24.9 -3.15Q24.4 -3.35 23.95 -3.85L23.25 -3.85L22.55 -4.7L21.75 -4.85L21.75 -5.15L21.35 -5.35L20.95 -5.2Q19.7 -6.15 19.65 -6.3L18.55 -6.4L18.35 -7.35L18.05 -7.6L16.85 -7.7L16.2 -8.5L15.35 -8.8L15.35 -9.8Q15.9 -9.45 16.4 -9.95L15.35 -9.95L15.35 -9.8Q15 -9.5 14.65 -9.7L14.35 -10.35L13.9 -10.5L13.8 -11.4L12.95 -12.3L13.8 -13.9L12.65 -14L12.35 -15.05L12.3 -15.25L11.65 -15L11.6 -14.3L11.1 -13.9L11.1 -13.4L10.7 -12.75L11.25 -11.7L10.85 -11.5Q10.7 -10.45 10.35 -9.65L10.45 -9.1L10.15 -8.75L10.25 -7.7L10 -7.7L10.15 -7.1L9.8 -5.25L9.8 -3.3L9.55 -2.9L9.35 -1.55L9.1 -0.4L9 0.6L8.3 1.85L8.2 2.25Q8.2 2.55 7.75 3.05L7.85 3.15L7.1 5.05L6.6 5.4L6.1 6.4Q5.95 6.75 5.65 7L5.15 7.45L5.15 8.05L4.45 8.15L4.55 8.3L4.15 9.5L1.95 11.1L0.35 10.85L-0.1 10.25L-0.25 10.1L-0.15 10.25L-0.35 10.25L-0.1 9.35L-0.85 8.9L-0.75 7.85L-1.05 7.6L-0.8 6.7Q-0.65 6.3 -0.1 5.9L-0.25 5.7Q0.4 4.35 1.7 3.5L3.25 3.8L3.65 3.8L3.65 3.95L4.25 4.15L4.35 3.8L3.65 3.8L3.65 3.3L4.2 3.1L4.2 2.55L4.8 2L4.55 2.1L4.55 1L5.05 1L5.1 0.95L4.75 0.35L5.2 -0.55L5.5 -2.7L5.65 -2.7L5.65 -2.85L6 -2.95L5.65 -3.75L6.35 -4.75L6.45 -4.75L6.15 -6.35L6.55 -6.2L6.6 -6.6L6.45 -6.9L6.75 -8.25Q6.85 -8.6 7.25 -9.05L7.05 -10.3L7.35 -10.3L7.15 -11.1L7.35 -11.1L8.35 -15.9L8.95 -16.3L8.85 -16.85L9.2 -17.95L9.1 -18.3L9.25 -19.35L9.65 -19.55L9.55 -20.2L9.85 -20.55L9.75 -21.35L10.05 -21.9L9.55 -22.7L9.95 -23.05L10.1 -22.95L10.1 -23.2L9.95 -23.05L9.4 -23.35L9.1 -24.1L8.9 -24.3L9.2 -24.65M13.6 -24.4L13.6 -24.25L13.7 -24.3L14.15 -23.85L13.85 -23.2L14.15 -23L13.35 -21.75L13.35 -21.2L12.75 -20.05L12.55 -19.4L12.8 -19.75L13.1 -19.8L13.45 -20.8L14.2 -21.05L14.8 -21.6L15.45 -21.65L15.55 -22.1L17.25 -22.75L17.8 -22.15L20.8 -24.2L21.75 -24.7L22.45 -25.3L23 -25.5Q23.1 -25.5 23.55 -25.95L23.85 -25.85L24 -26.3L25.2 -27L25.8 -27.6L26.2 -27.9Q26.4 -28.05 26.6 -28.45Q26.6 -28.35 26.25 -28.8L21.95 -29.15L21.3 -29.55L21.3 -29.7L21.05 -29.85L21.05 -29.7L21.3 -29.55L21.3 -29.1L20 -28.6L16.5 -28.7L15.7 -28.55L15.5 -28.25L15.6 -27.3L14.35 -24.45L13.7 -24.3L13.6 -24.4" />
</g>
<g id="PathID_36" transform="matrix(0.79545, 0, 0, 0.79545, 263.95, 93.4)" opacity="1">
</g>
<g id="PathID_37" transform="matrix(0.79545, 0, 0, 0.79545, 292.05, 93.4)" opacity="1">
<path style="fill:#313131;fill-opacity:1" d="M14.85 -0.1L14.6 0L14.85 0L14.85 0.25L14.05 0.25L13.95 0.7L12.15 0.9L7.05 0L6.7 -0.6L4.7 -1.3L3.35 -2.7L3.05 -4.05L2.5 -4.45L1.75 -6.3L1.75 -7.8L2.1 -8.25L1.95 -8.7L2.1 -9.5L2.8 -10.75L2.45 -12L2.9 -12.3L3.25 -13.3L3.1 -14.85L3.9 -15.25L3.9 -16.35L4.45 -16.35L4.7 -17.4L4.85 -17.4L4.95 -17.15L4.95 -17.4L4.85 -17.4L4.7 -17.95L5.05 -17.95L5.05 -17.85L5.1 -17.95L5.05 -17.95L5.05 -19.1L6.55 -20.1L6.4 -20.25L7.7 -22.15L7.75 -22.15L8.05 -22.8L8.55 -22.95L8.55 -23.55L8.9 -23.55L8.95 -23.85L10.25 -25.35L10.4 -25.45L10.55 -25.65Q11 -26.1 11.05 -26.25L11.35 -26.5L11.8 -27.25L13.55 -28.85L14.3 -29.8Q14.55 -30.15 14.9 -30.35L15.5 -30.7L15.65 -31.1L16.8 -31.45L16.7 -31.5Q17.5 -32.3 17.7 -32.35L17.7 -32.2L18.2 -33L19.15 -33.4Q20.4 -34.45 20.95 -34.6L22.85 -35.25L23.35 -35.05L23.75 -35.25L24.1 -35.25L25.15 -34.95L25.2 -34.45L25.25 -34.6L25.85 -34.15L25.85 -33.75L26.15 -32.8L26.35 -29.15L26.35 -29.05L25.5 -26L25.4 -26.3L25.45 -25.5L25.55 -24.9L24.95 -24.05L24.85 -23.9L24.95 -23.9L24.95 -24.05L25.15 -23.3L24.9 -22.4L24.9 -21.75L24.15 -21.75L23.85 -21.05L23.85 -20.5L23.5 -20.5L22.35 -19.1L21.95 -18.95L21.55 -18.2L21.35 -18.45L21.45 -18.05L21 -17.3L19.9 -17.3L19.75 -17.65L18.75 -18.1L18.15 -19.4L18.25 -20.6L18.5 -20.75L20.05 -24.95L21.15 -26.2L21.35 -27.5L21.05 -29.7L20.15 -29.95L19.4 -29.85L18.75 -29.5L18.35 -28.95L16.25 -27.65L15.65 -27.8L15.45 -27.65L15.55 -27.65L15.55 -27L14.9 -26.85L14.8 -26.5L13.2 -25.15L12.35 -24.1L12.35 -23.9L11.8 -23.55L11.8 -23.3L11.2 -23.05L11.2 -22.55L10.9 -22.55L9.95 -21.3L10.1 -21.15L8.55 -17.95L8.4 -17.9L8.45 -18.4L8.15 -18.4L8.15 -17.8L8.4 -17.9L8.3 -16.6L7.95 -15.95L7.45 -13.8L7 -13.35Q6.7 -10.75 6.65 -10.8L7.3 -10.4L7.15 -8.5L7.45 -7.05Q8.2 -5.95 8.2 -5.35L8.6 -5.7L9.6 -4.7L10.75 -3.7Q11.85 -3.45 12.5 -3.4L13.9 -4L14.3 -3.5L16.3 -4.1L16.6 -3.8L16.6 -3.9L20.1 -4.95L20.45 -4.95L22.1 -6.05L23.7 -6.5L24.75 -6.95L26.4 -8.05L26.7 -8.05L27.1 -8.35L29.35 -10.65L29.9 -10.95L29.6 -11.6L28.1 -12.4L28.25 -13.55L33.55 -15.9L33.75 -16.15Q34.6 -16.4 34.8 -16.7L35.8 -16.7L36.15 -15.8L36.6 -15.8L36.2 -13.45L35.75 -13.45L34.7 -12.7L34.45 -12.7L34.45 -12.55L34.7 -12.7L35.2 -12.75L34.95 -11.9L33.15 -10.55L33.15 -10.8L32.85 -9.8L32.85 -9.45L31.6 -8.65Q31.4 -8.4 31.05 -8.15L30.65 -8.15L30.55 -8Q30.1 -7.8 29.8 -7.05L28.15 -6.25L27.55 -6L27.35 -6.15Q27.45 -6.05 27.05 -5.45L26.8 -5.45L26.4 -5L26.35 -5.1L26.3 -4.7L25.2 -4.55L24.85 -4.2Q24.55 -3.95 23.75 -3.55L23.75 -3.3L22.85 -3.4L22.6 -3.2L22.4 -2.4L21.6 -2.5L21.6 -2.45L21.6 -2.15L20.4 -2.15Q19.85 -1.55 19.05 -1.25Q18.3 -0.95 16.8 -0.65L16.8 -0.2L15.7 -0.3L15.7 0.1L14.85 0L14.85 -0.1M26.35 -29.05L26.35 -28.6L26.25 -28.6L26.35 -29.05" />
</g>
<g id="PathID_38" transform="matrix(0.79545, 0, 0, 0.79545, 292.05, 93.4)" opacity="1">
</g>
<g id="PathID_39" transform="matrix(0.79545, 0, 0, 0.79545, 321.35, 93.4)" opacity="1">
<path style="fill:#313131;fill-opacity:1" d="M16.05 -34.5L16.15 -34.45L16.15 -34.55L17.75 -34.9L18.2 -34.4L20.05 -34.15L20.4 -33.8L21 -33.9L21.2 -33.35L23.25 -33.9L23.25 -33.5L23.5 -33.45L24.6 -33.8L26.95 -33.3L29.1 -35.25L29.85 -35.55L30.95 -35.55L31.9 -34.95L32.05 -33.8L30.9 -32.1L30.8 -32.1L30.95 -32.5L29.3 -30.2L29.1 -29.8L27.6 -29.15L27.15 -29.4Q26.7 -28.8 25.75 -28.5L25.55 -28.6L25.2 -28L24.25 -27.65L23 -28.4L22.85 -28.95L21.45 -28.6L20.35 -29.05L18.55 -28.7L17.1 -28.7Q17 -27.45 16.7 -26.95L16.85 -26.75L16.55 -24.85L16.15 -23.65L16.15 -22.55L15.95 -22.55L15.95 -22.4L16.15 -22.55L19.45 -22.25L21.5 -22.65L23.05 -22.2L23.95 -23.3L26.05 -23.3L26.3 -22.7L27.25 -22.35L27.25 -21.1L26.65 -20.55L26.05 -19.35L24.55 -18.3L23.85 -18Q23.05 -17.65 22.1 -17.65L19.45 -18L18.1 -17.75L17 -17.4L15.9 -17.55L15.3 -17.4L14.8 -17.4L14.8 -17.45L14.7 -17.4L14.8 -17.4L14.5 -16.55L14.15 -15.45L13.55 -14.4L12.9 -10.7L12.45 -6.85L12 -5.85L11.95 -3.45L12.1 -3.35L13.8 -3.1L14.5 -2.7L15.55 -2.7L16 -2.35L16.65 -2.6L17.45 -2.3L19.6 -2.65L20.55 -2.6L20.8 -2.8L22.05 -2.8L23.05 -3.15L23.95 -3.05L24.1 -3.2L25.9 -3.65L25.5 -4.15L25.85 -4.9Q26.35 -6.5 27 -7.7L28.4 -7.6L29.3 -8.15L31.15 -8.15Q31.8 -7.2 33.15 -6.2L33.4 -4.6L33.4 -4L32.95 -3.4L32.95 -2.8L32.4 -2.45L32.4 -2.05Q31.5 -0.9 29.95 -0.6L29.85 -0.4Q29.7 -0.05 29.35 0.15L28.55 0.75L25.85 0.85L24.65 1.65L22.5 1.65L22.25 1.35L21.8 1.65L21.25 1.2L19.35 1.85L18.4 1.85L18 2.2L16.45 1.95L14.8 2.45L14.05 2.3L13.45 2.6L11.9 2.45L10 2.6L9.65 2.45L9.4 3.2L8.95 3.7L8.85 4Q8.8 4.2 8.25 4.8L8.25 5.1Q7.65 5.75 7.3 6.4L5.95 6.9L3.85 8L3.15 6.35L3.45 5.45L3.4 4.5L4.4 3L5.2 2.65L5.6 2L5 1.85L4.6 2.1L3.75 1.65L2 1.65L1.65 2.1L-0.45 1.95L-1.55 0.1L-1.55 -0.7L-1.6 -0.7L-1.75 -2.3L-1.05 -2.6L-0.9 -2.95L0.4 -4L1.65 -4L2.7 -4.4Q3.75 -4.4 5 -3.9L6 -4.3Q7.05 -4.3 7.75 -3.85L7.8 -4.05L7.65 -4.55L8.55 -9.5Q8.6 -10 9.05 -11.35L8.9 -12.05L9.35 -13L10.1 -17.45L9.25 -18.95Q9.7 -19.9 10.5 -20.6L10.3 -21.9L10.75 -22.05L11.15 -22.85L11 -23.4L11.35 -24.15L10.8 -24.9L11.15 -25.85L10.9 -26.4L10.9 -27.55L11.3 -27.85L10.8 -28.2L10.8 -29.25L9.5 -29.5L9.2 -29.5L6 -28.75L4.5 -29.05L4.1 -28.35L2.55 -28.25L1.5 -30.15L2 -31.2L2.35 -31.3L2.6 -31.8L4.05 -33L4.85 -33L5.35 -33.9L5.8 -33.8Q6 -34.05 6.6 -34.45L7.25 -34.45L8 -34.25L9.3 -34.15L11.1 -34.35L11 -34L11 -33.95L11.7 -34.35L12.3 -34L12.3 -34.2L13.85 -34.25L13.65 -34.1Q15.1 -35.3 16.4 -35.4L16.15 -34.55L16.05 -34.5" />
</g>
<g id="PathID_40" transform="matrix(0.79545, 0, 0, 0.79545, 321.35, 93.4)" opacity="1">
</g>
<g id="PathID_41" transform="matrix(0.79545, 0, 0, 0.79545, 349.05, 93.4)" opacity="1">
<path style="fill:#313131;fill-opacity:1" d="M19.8 -5L19.7 -5L19.75 -4.9Q19.35 -4.65 19 -4L17.95 -3.8L17.55 -3.25L17.1 -3.1L16.8 -2.75L14.1 -0.75L11.7 0.5L11.35 0.85L9.05 1.65L8.75 1.35L7.35 1.65L6.2 1.05L6.1 0.6L5.75 0.95L4.25 -0.2L4.15 -1.05L3.85 -1.25Q3.5 -1.45 2.9 -2.3L3 -2.9L2.25 -3.75L2.45 -4.45L2 -6.05L2.8 -6.55L2.6 -6.85L2.1 -7.1L2.1 -8.1L2.8 -9.3L2.25 -9.95L2.6 -11.3L3.15 -11.5L2.7 -11.8L2.7 -12.45L3.25 -13.45L3.15 -14.35L3.9 -16.1L4.05 -16.3L3.95 -16.85L5.45 -20.7L5.75 -20.7L6.05 -21.7L6.75 -22.4L7 -22.65L6.75 -23.4Q7.2 -23.9 7.6 -24.55L8 -24.7L7.95 -25.05Q9.15 -26.05 9.3 -27L10.55 -28.2L12 -29.3L12.3 -29.9Q12.9 -30 14.15 -30.95L14.25 -30.85Q15.35 -32 15.75 -32.15L17.1 -32.65L17.35 -33L18 -33.1L18.75 -33.55L19.95 -33.65L20.65 -33.55L21.15 -33.35L22.4 -33.45L23.45 -33.1L23.4 -33L23.85 -32.45L24.15 -32.45L25.1 -30.7L24.85 -30L24.9 -28.9L24.9 -27.65L24.35 -27.15L24.45 -27.1L24.8 -27.3L25.95 -27.1L25.95 -26.05L25.65 -25.45L26.6 -23.15L26.2 -22.65Q26 -22.4 25.05 -22L24.9 -21.5L25 -20.55L24.45 -19.5L22.75 -18.65L22.45 -18L21.3 -18.3Q20.9 -17.85 20.7 -17.05L18.85 -16.95L18.15 -18.15L18.3 -18.9L17.85 -19.95L18.5 -21.6L18.4 -22.25L18.6 -23.6L18.6 -24.8L18.85 -26.75L18.45 -28.1L18.35 -28.25L18.3 -28.25L17.6 -28.6L16.6 -28.6Q15.3 -28 15.15 -27.65L14.8 -27.65L11.3 -24.15L10.8 -23.05L10.5 -22.85L10.45 -22.35L9.25 -21.1L8.9 -19.35L8.25 -18.6Q8.1 -18.45 8 -18.1L7.65 -16.95L7.25 -16.95L7.25 -16.2L6.85 -15.9L6.5 -13.7L5.85 -13.15L5.8 -12.7L6 -12.1L5.65 -11.1L5.8 -9.15L5.25 -8.65L5.1 -8.05L5.4 -7.2L5.5 -6.1L6.75 -3.9L7.05 -3.2L8.3 -1.8L8.1 -1.8L7.6 -1.9L7.6 -1.7L8.4 -1.7L8.3 -1.8L10.4 -2L10.65 -1.9Q11.15 -2.15 11.75 -2.7L11.85 -2.7L12.35 -3.55L14.3 -4.55L14.65 -4.85Q14.95 -5.1 15.8 -5.45L15.8 -5.8L16.65 -6Q16.7 -6.25 17.45 -6.85Q18.25 -7.45 18.6 -7.45Q19.05 -8.3 19.55 -8.7L19.55 -10.05L21.85 -12.3L22.6 -12.55L24.55 -13.85L25.5 -13.95L26.1 -13.4L26.35 -13.85L28.1 -13.1L27.3 -10.65L27 -10.55L27.05 -5.75L27.35 -5.4L27.35 -3.85L27 -3.25L27.1 -2.05L26.85 -1.7L26.85 -0.65L25.6 2.8L25.05 4.95L24.75 5.45L24.75 5.85L24.3 6.7Q23.6 7.7 23.35 8.2L23.25 8.15L23.3 8.1L23.05 7.95L23.25 8.15L22.45 8.7L22.1 9.35L21.7 9.8L21.2 10.8L20.5 11.6L20.15 12.35Q19.45 12.9 18.65 13.8L18 14L18.1 14.5Q17.15 15.2 16.85 15.3L16.85 15.95L15.75 16.4L15.2 17.25L14.8 17.35L14.7 17.7L12 19.2L11.35 19.8L11 19.7L10.1 20.7L9.6 20.6L9.15 20.95L8.75 22.1L7.6 22.4L6.85 22.3L5.25 23L4.75 22.65L4.2 23.55L3.2 23.7L3 23.45L2.75 23.7Q2.35 23.9 1.9 23.95L0.8 24L0 22.9L0.65 21.3L1 21.4L1.3 20.95L1.75 21.05Q2.4 20.9 3.15 20.6L3.25 20.75L3.4 20.5L3.6 20.5Q3.75 20.35 4.65 20L5.85 19.5L6.2 19.5L6.45 19.2L7.55 18.85L9.7 17.75L10.45 17.05L11.5 16.6L11.95 16.25L12.4 16.05L13.85 14.75L13.85 14.55L15.5 12.9L16 12.55L16.2 11.85L17.65 10.4L17.65 9.8L19.2 7.4L19.2 6.85L19.8 6.65L20.55 4.25L20.45 2.6L20.9 2Q20.75 0.25 20.35 -0.5L20.85 -2.8L21 -2.8L20.75 -3.1L20.15 -3.45L19.75 -4.9L19.8 -5" />
</g>
<g id="PathID_42" transform="matrix(0.79545, 0, 0, 0.79545, 349.05, 93.4)" opacity="1">
</g>
<g id="PathID_43" transform="matrix(0.79545, 0, 0, 0.79545, 374.3, 93.4)" opacity="1">
<path style="fill:#313131;fill-opacity:1" d="M4.7 -23.7L4.9 -23.9L4.8 -23.95L5 -24.3L4.9 -25.2L5.35 -25.55L5.75 -26.65L5.8 -26.65L5.9 -26.9Q6 -27.2 6.4 -27.6L6.4 -28.25L6.85 -28.35L8.25 -29.9L8.5 -30.55L9.1 -30.8L9.15 -31.25L10.15 -32.15Q10.4 -32.7 11.5 -33.15L13.25 -33.9L14.6 -33.9L15.6 -34.15L16.55 -33.95L17.45 -32.85Q18.05 -32.15 18.1 -30.85L18.95 -29.75L18.85 -29.1L19.85 -27.7L19.75 -27.1L20.1 -26.4L19.85 -25.55L20.5 -25L20.75 -24.1L21.5 -24.1L22.6 -23.55Q22.9 -23.45 23.3 -23.1L23.95 -22.45L23.7 -20.9L24.05 -20.6L23.95 -19.55L24.15 -18.75L23.65 -17.85L23.8 -16.95L22.9 -15.9L22.8 -15.75L23.7 -14.6L22.65 -13.9L21.9 -12.7L20.85 -12.4Q20.4 -12.3 20.15 -12.15L19.5 -11.85L19.75 -11.65Q18.8 -10.1 18.85 -9.8L18.3 -9.5L17.95 -8.3L17.65 -8.2L17.25 -7.45Q16.55 -6.9 16 -6.3L16.1 -6.2L15.2 -5L15.05 -4.75L15 -4.8L15.2 -5L14.9 -4.9L15 -4.8L13.2 -2.85L10.5 -0.55L10.1 -0.55L9.55 0.05Q9 0.25 8.2 0.75L7.55 0.35L7.4 0.45L6.25 0.15Q5.75 0 4.95 -0.55Q4.55 -0.95 4.15 -1L3.85 -1.75L3.3 -1.7L3.15 -2.25L2.5 -2.6L2.75 -3.55L3.1 -3.55L2.85 -3.6L3 -4L2.7 -4.45L2.45 -4.8Q2.3 -5.05 2.1 -6L1.75 -6L1.85 -7.2L1.75 -7.95L1.95 -8.1L1.75 -8.2L2.05 -10.25L1.75 -11.6L2.05 -11.8L1.95 -11.9L2.05 -13.05L1.85 -13.9L2.3 -14.7L2.3 -15.85L2.85 -17.55L2.75 -17.55L3 -18.55L2.85 -18.95L3.1 -19.2L3 -19.45L4.4 -22.25L4 -22.15L4 -22.2L4.15 -23.15L4.35 -23.25L4.35 -23.45L4.55 -24.05L4.8 -23.95L4.7 -23.7M15.1 -18.3L15.3 -18.3L15.25 -18.85L15.05 -18.75L14.85 -19.95L14.95 -20.2L14.4 -20.35L14.25 -21.75L14.5 -21.95L13.85 -24.1L14.15 -24.1L13.6 -24.15L13.7 -24.55Q13.1 -25.6 13 -26.1L12.6 -26.45L12.6 -27.45L12.55 -27.7L12.25 -27.85L12 -28.8L11.65 -28.3L10.85 -27.1L10.2 -26.45L9.4 -25.2L8.95 -24.1L8.5 -23.2Q8.35 -22.9 8.2 -21.95L7.9 -21.6L7.9 -20.55L7.25 -19.95L7.1 -19.35L7.1 -18.75L6.5 -18.15L6.5 -18.1L5.6 -15.95L5.75 -15.1L5.25 -14.15L5.5 -14L5.25 -13.1L5.5 -12.75L5.1 -11.5L4.8 -10.1L5.25 -9.7L4.5 -8.95L4.6 -8.95L5.05 -8.95L4.95 -7.6L4.95 -6.55Q5.35 -6.25 5.6 -5.6L5.5 -5.3Q5.85 -4.6 5.95 -4.1L6.2 -3.95Q6.45 -3.8 6.95 -3.15L8.1 -3.4L8.4 -2.8L8.65 -3.1L8.8 -3.4L9.3 -3.5L9.6 -4.4L9.75 -4.4L10 -4.85L10.9 -4.85Q11.4 -5.45 11.6 -6.1L12.05 -6.25L12.2 -6.7L13.1 -8.35L13.75 -8.7L13.85 -9.25L14.85 -9.5L14.35 -9.6L14.35 -10.5Q14.75 -11.15 14.85 -11.2L14.2 -11.35Q13.9 -11.45 13.45 -11.9L12.1 -11.7L12.8 -13.2L13.8 -13.65L14.25 -14Q14.7 -14.25 14.8 -14.45Q14.95 -14.65 15.1 -15.25L15.4 -15.3L15.05 -15.45L15.05 -16.25L14.95 -17.15L15.05 -17.25L14.6 -17.8L14.75 -18.6L15.05 -18.75L15.1 -18.3" />
</g>
<g id="PathID_44" transform="matrix(0.79545, 0, 0, 0.79545, 374.3, 93.4)" opacity="1">
</g>
<g id="PathID_45" transform="matrix(0.79545, 0, 0, 0.79545, 394.55, 93.4)" opacity="1">
<path style="fill:#313131;fill-opacity:1" d="M31.65 -34.8Q32.35 -34.3 32.6 -34.25L32.85 -34.6L34.7 -34.6L33.9 -32.5Q33.95 -31.55 34.25 -30.05L33.8 -28.9L33.45 -28.7L33.8 -28.2L31.55 -23.45L30.95 -22.55Q30.8 -22.35 30.15 -21.95L28.9 -19.25Q28.05 -17.5 26.4 -16.35L26.2 -15.5L25.55 -14.95L25.3 -14.6L24.9 -13.65L24.25 -13.4L23.5 -12.55L23.05 -12.55L20.85 -9.85L20.6 -9.15L20.05 -8.8Q19.8 -8.65 19.35 -7.9L18.55 -6.4L17.95 -6.1L17.6 -5.55L17.6 -4.95L18.3 -3.95L17 -2.5L16.2 -2.4L15.85 -2.05L14.55 -1.2L14.35 -0.6L13.3 0.05L13.3 0.45L11.85 0.85L10.85 0.2L10.4 -0.85L10.8 -3.25L11.25 -3.75L11.1 -3.8Q10.5 -4.25 10.4 -4.5L10.2 -4.8Q10.1 -5.15 10 -6.65L10.25 -6.8L9.6 -7.15L9.6 -8.5L9.35 -10.65L10 -10.8L10.05 -11.25L9.7 -12.8L9.7 -13L9.35 -13.1L9.35 -15.4L8.7 -16.2L8.8 -17.05Q8.95 -17.3 9.05 -17.7L8.55 -18.5L8.8 -19.65L8.15 -19.9L7.85 -20.5L7.2 -20.5L7.3 -21.8L7.3 -22L7 -22.2L7.2 -22.85L6.85 -23.7L7.1 -24.4L6.85 -24.85L7.45 -25.5L6.85 -25.65L7 -26.6L6.95 -26.6L6.85 -26.6L6.75 -25.6L5.65 -25.25L5.25 -25.25L4.95 -24.85L2.95 -24.6L1.55 -24.75L1.25 -25.25L0.75 -25.45L0.95 -26.25L0.75 -27.25L1.8 -28.55L2.05 -28.55L2.75 -29.05L5 -30.15L5.5 -30.8L6.85 -31L7.05 -31.3L8.55 -31.8L10.7 -32.9L11.25 -33.45L12.55 -33.55Q13.7 -32.65 13.95 -32.1Q13.85 -31.3 13.4 -30.6L13.6 -29.5L13.4 -28.95L13.6 -27.4L13.4 -26.9L13.55 -24.85L12.9 -24.1L13.35 -23.7L13.95 -20.9L13.7 -20.75L13.6 -20.25L14.2 -19.7L14.2 -18.6L14.35 -18.45L14.2 -17.45L15.35 -16.1L15.05 -15.25L16.1 -13.55L16.6 -11.65L16.5 -10.15L16.75 -10.35L16.95 -10.85L17.7 -10.75L18.05 -11.05L18.3 -11.7L19.05 -12.55Q19.6 -13.45 19.9 -13.75L20.35 -14.05L21.75 -15.9L22.6 -16.35L23.8 -18.65L24.6 -19.35L25.05 -20.25L26.15 -21.5L26.15 -22.15L27.1 -22.15L27.15 -22.2L27.4 -24.55L27.8 -25.5Q28.25 -25.95 28.6 -27.9L28.8 -27.9Q28.95 -28.55 29 -28.5L28.9 -28.65L28.7 -28.65Q28.4 -28.7 27.2 -29.6L26.95 -30.85L27.55 -32.05L27.95 -32.15L28.95 -33.4L29.35 -33.5L29.7 -34.1L30.55 -34.3L31.65 -34.8M16.3 -9.95L16.55 -9.95L16.5 -10.1L16.3 -9.95" />
</g>
<g id="PathID_46" transform="matrix(0.79545, 0, 0, 0.79545, 394.55, 93.4)" opacity="1">
</g>
<g id="PathID_47" transform="matrix(0.79545, 0, 0, 0.79545, 421.9, 93.4)" opacity="1">
<path style="fill:#313131;fill-opacity:1" d="M11.6 -10.65L11.85 -10.65L11.75 -10L12.1 -6.1L11.95 -5.95L12.1 -5.9L14.35 -6.1L15.05 -5.85Q15.8 -5.55 16.3 -5Q14.8 -2.6 14.3 -2.6L14.1 -2.15L13.3 -2.25L12.65 -1.3L12.1 -1.2L11.85 -0.85Q11.7 -0.65 10.55 0L9.85 -0.05L8.7 0.35L6.6 0.6L2.95 1.25L1.8 1.65L1.1 1.2L0.2 1.35L0 -0.65L1.6 -2.15L1.8 -2.45Q2 -2.7 2.55 -2.95L3.05 -3.7L3.5 -3.5L4.15 -4.15L5.85 -4.5L6.35 -4.4L6.85 -4.6Q7.3 -4.8 7.75 -5.15L7.75 -5.4L7.4 -5.9L7.6 -8L7.4 -8.45L7.75 -9.4L7.6 -10.45L7.3 -10.85L7.75 -11.75L7.6 -12.35L7.85 -13.05L7.6 -13.55Q8.1 -14.85 8.55 -15.1L8.05 -15.65L8.55 -17.05L7.85 -17.7L8.55 -18.6L7.6 -19.1L8.05 -20.15L7.85 -21L8.05 -22.35L8.05 -23.1L8.65 -23.8Q8.85 -25 9.25 -25.75L9.45 -25.85L9 -26.9L9.3 -27.45L9.05 -27.55L7.85 -27.15L7.15 -26.5Q6.8 -26.35 6.4 -26L5.45 -26L4.9 -26.9Q4.65 -27.3 4.35 -28.7L4.85 -29.7Q5.35 -30.5 6.15 -30.55L6.15 -30.85L6.7 -31L7.05 -31.5L7.65 -31.5Q8.3 -31.85 9.05 -32.5L9.9 -32.6Q11 -33.35 11.3 -33.35L12.55 -33.35L12.55 -33.15Q12.75 -33.15 13.55 -32.65L14.35 -33.2L17.9 -33.1L18.25 -33L20 -34.5L20.95 -35.05L21.95 -34.75L22.05 -33.75L23.15 -33.4L23.15 -32.45L22.35 -31.95L22.15 -31.25Q20.25 -30.55 19 -29.65Q18.2 -28.7 17.5 -28.35L14.9 -27.2L15.3 -27L14.55 -25.3Q14.5 -24.65 14.1 -23.65L13.8 -22.9L12.85 -18.55L12.15 -13.85L11.85 -13.95L11.85 -10.7L11.6 -10.65" />
</g>
<g id="PathID_48" transform="matrix(0.79545, 0, 0, 0.79545, 421.9, 93.4)" opacity="1">
</g>
<g id="PathID_49" transform="matrix(0.79545, 0, 0, 0.79545, 437.65, 93.4)" opacity="1">
<path style="fill:#313131;fill-opacity:1" d="M2.2 -25.3L2.5 -25.05L2.6 -25.25L2.25 -25.35Q2.4 -26 3.45 -27.2L4.55 -27.5L4.65 -28.45L5.45 -28.35L5.8 -28.75Q5.95 -28.9 6.5 -29.1L7.25 -29.4L7.4 -29.65L8.35 -29.75Q8.6 -29.8 8.9 -30Q9.25 -30.25 10.55 -30.5L11.65 -30.65L14.25 -32.15L14.95 -32.9L16.5 -33.5L18.2 -33.65L19.05 -31.85Q18.35 -30.5 18.4 -30.2L19.15 -26.2L19.55 -25.2L19.55 -24.95L20.15 -24.95L20.25 -23.7L21.35 -22.75L21.25 -22.05L21.4 -21.9L23.35 -18.55L25.4 -14.55L26.05 -13.85L26.05 -13.55L26.2 -13.35L26.3 -13.75L26.55 -13.85L26.55 -13.9L27.5 -16.9L27.55 -17.55Q27.6 -17.9 28.1 -19.35L29 -20L29 -20.45L29.55 -21.35L29.55 -22.05Q30.1 -22.8 30.4 -24.05Q30.7 -24.2 30.85 -24.4L31.05 -24.7L32.45 -28.4Q32.75 -29.05 32.95 -29.2L33.25 -30.45L33.75 -30.85L34.25 -31.8L34.6 -32.85L35.1 -33.45Q35.3 -33.65 35.6 -34.55L36.05 -34.65L37.3 -36.9L38.05 -37.55L38.2 -37.55Q38.5 -38 38.9 -38L39.85 -38.15L40.1 -38L40.7 -38L43.15 -36.3L44.95 -34.15L42.1 -31.9L41.65 -31.35L39.5 -30.85L38.35 -30.95L37.65 -31.5L35.75 -27.6L34.9 -26.6L34.8 -25.55L33.95 -24L33.6 -22.8L33.2 -22.2L33 -20.6L32.65 -19.7Q32.6 -19.5 32.05 -18.95L32.05 -18.55L31.75 -17.55L31.95 -16.9Q31.55 -15.5 31.3 -15.15L31.4 -14.3L31.05 -13.4L31.3 -13.25L31.3 -12.6L31.75 -12.1L31.5 -11.1L31.75 -8.85L31.55 -8.85L31.5 -8.05Q31.5 -7.8 32.55 -6.45L32.3 -6.05L32.7 -5.7L33 -3L32.4 -2.4L32.4 -1.9L31.9 -0.7L31.5 -0.7L30.4 0.85L29.5 0.75L28.8 1.55L26.8 2.75L25.4 0.5L25.4 -1.55L25.1 -3.35L25.2 -4.05L23.85 -6.15L24.15 -6.75L23.85 -7.5L23.75 -7.5L23.05 -7.25Q22.75 -7.95 22.2 -8.55L21.7 -8.55L21.05 -10.7L20.05 -11.6L19.5 -12.75Q19 -13.55 18.95 -13.95L17.7 -15.1L17.25 -16.05L17.35 -16.6L17.15 -16.85L16.75 -17L16.5 -17.65L16.2 -17.65L15.8 -18.85L15.15 -19.7Q15 -19.9 14.95 -20.15L15.05 -20.35L14.85 -20.4Q14.85 -20.25 14.95 -20.15L14.55 -19.3L14.55 -18.9Q14.35 -17.85 13.85 -16.45L13.5 -16.3L13.65 -16.05L14.3 -15.6L14.05 -14.25L14.05 -12.85L12.9 -11.5L13 -10.55L12.7 -9.9L13 -9.05L12.8 -8.8L12.9 -8.15L12.45 -7.1L12.45 -6.35L12 -5.75L11.65 -4.4L11.65 -3.8L11.4 -3.5L10.25 -0.05L9.85 0.8L9.05 1.1L9.15 1.4L6.85 2.45L5.5 2.1L5.15 0.65L5.6 0.25L5.75 0.25L5.75 0.1L5.6 0.25L4.8 0.25L4.8 -0.7L5.6 -1.35L5.4 -2.45L6.4 -2.75L7.35 -4L7.65 -5.2L7.65 -5.9L8.2 -6.5L8.2 -7.4L9.7 -13.45L9.6 -13.75L9.6 -15L10.25 -15.95L10.05 -16.6L10.65 -17.6L10.7 -18.15L11 -18.95L10.85 -19.4L11.25 -20.7L10.25 -23.2Q10.65 -23.9 11 -24.05L10.6 -25.1L10.9 -26.2L11.4 -26.2L11.35 -26.4L10.95 -26.3L10.9 -26.2L9.95 -26.2L7.75 -25.45L7.6 -25.75L6.7 -23.65L3.7 -20.9L1.65 -20.15L0.75 -21.75L0.75 -23.15L0.95 -23.2L1.25 -23.1L1.25 -23.35L0.95 -23.2L0.85 -23.25L0.85 -24.4L1.35 -24.85L1.35 -25.6L2.25 -25.35L2.2 -25.3" />
</g>
<g id="PathID_50" transform="matrix(0.79545, 0, 0, 0.79545, 437.65, 93.4)" opacity="1">
</g>
<g id="PathID_51" transform="matrix(0.79545, 0, 0, 0.79545, 470.45, 93.4)" opacity="1">
<path style="fill:#313131;fill-opacity:1" d="M7.2 -14.45L7.5 -14.45L7.35 -14.55L7.25 -14.5L7.4 -14.85L7.9 -14.8L7.9 -14.7L8.45 -15.05L8.1 -15.55L8.7 -16.6L9.6 -16.9L9.8 -17.45Q9.85 -17.7 10.55 -18.3Q11.05 -20.25 11.5 -19.7L11.3 -19.7L12.95 -22.15L13 -22.05L14.3 -23.8L14.2 -23.8L15.05 -25.75L15.2 -25.75L16.55 -28.25L16.75 -28.25L17.85 -30.05L18.2 -30.15L18.7 -31.1L19.1 -32.2L19.85 -32.75L20.4 -34.15L20.6 -34.2L20.7 -35.25L21.15 -35.25L21.2 -35.6L21.4 -35.6L21.6 -36.05L23.65 -37.25L24.8 -38L26.4 -37.8L27.2 -36.55L27.1 -35.4L27.2 -34.8L27.4 -33.4L27.6 -32.75L27.6 -32L28.2 -31.45L28.2 -30.9L28.95 -25L29.6 -23.6L28.8 -23.6Q29.25 -22.85 29.5 -21.65L29.75 -21.5L30.5 -22.15L31.5 -21.8L32 -21.8L31.95 -21.7L32.1 -21.8L32.85 -21.6L34.1 -22.5L35.85 -22.4L35.95 -22.75L37.6 -22.4L39.45 -22.9L39.8 -23.25Q40.15 -23.6 40.65 -23.75L42.05 -24.1L42.55 -23.4L43.45 -23.4L43.95 -21.85Q43.4 -20.65 42.6 -20L42.35 -20.15L40.65 -18.25L39.45 -17.4L36.95 -17.4L35.55 -17.05L34.4 -17.3L31.95 -16.3L31.8 -16.4L30.95 -16L31.25 -11.45L31.4 -11.45L31.4 -10.55L31.05 -10.4L31.35 -10.3L31.45 -9.1L31.75 -8.75L31.5 -8.25L31.95 -7.75L32.2 -5.75L32.2 -5.65L32.65 -5.75L33 -5L32.9 -4.1L32.65 -4.1L32.75 -1.6Q32.2 -0.7 31.55 0L30.8 0.1L30.5 0.85L30.05 0.75L30.15 1L29.65 1.7Q29.4 1.95 27.85 2.8L26.75 2Q26.5 1.85 26.2 1.1L25.9 0.45L25.9 -0.95L25.45 -3L25.2 -3.45L25.4 -4.9L25.2 -6.2L25.7 -7.15L25.1 -9.15Q25.35 -9.7 25.4 -10.25L25.2 -10.65L25.4 -11.8Q25.4 -12.15 25.1 -13.65L25.55 -14.65L25.45 -15.9L25.15 -16.15L24.15 -15.95L24.15 -16.15L24.1 -16.1L24.2 -15.35L23.15 -15.5L22.75 -15.4L22.65 -15.3Q21.4 -14.7 20.1 -14.7L19.5 -14.8L18.1 -14.35L16.95 -14.15L16.8 -13.45L15.9 -13.85L15.9 -13.45L15.4 -13.45L14.65 -12.7L13.95 -12.7L14.35 -11.7L12.95 -11.9L11.7 -11.15L11.2 -10.65L10.3 -10.9L9.5 -10.2L8.95 -10.2L8.95 -9.65L7.9 -9.45L7.6 -8.85L7.2 -8.4L6.65 -7.25L6.8 -7.1Q6.65 -6.45 6 -5.8L5.9 -4.45L5.2 -4L5.3 -3.4L4.95 -3.4L4.95 -3.1L4.15 -2.5L4.15 -2.35Q3.85 -2.05 3.35 -1.15L3.25 -1.15L2.55 0.25L2.55 0.2L1.9 0.7L1.8 1.05Q1.75 1.4 0.9 2.1L-0.55 1.6Q-0.7 1.2 -0.9 1.05L-0.8 0.35L-0.8 0.15L-0.65 -0.15Q-0.85 -0.5 -0.9 -2L-1 -2.6L-0.9 -2.55L-0.9 -2L-0.65 -2.4L-0.9 -2.55L-0.9 -2.75L-0.8 -2.75L-1 -3.25L-0.8 -3.7L-1.05 -4.3L-0.9 -4.6L-1 -6.15L0 -6.8L1.55 -5.75L1.9 -5.75L4.5 -8.7L4.1 -8.85L4.15 -9.1L4.05 -8.85L4.1 -8.85L3.8 -8.5L3.4 -8.6L3.15 -8.4Q2.8 -8.2 1.55 -8.05L0.45 -9.55Q1.15 -11.5 1.5 -11.65Q1.5 -11.8 2.55 -12.85L2.9 -12.8L3.95 -14.45L4.25 -14.45L6.75 -14.85L7 -14.45L7.25 -14.5L7.2 -14.45M21.55 -28.1L21.5 -28.2L21.45 -28.1L21.25 -28.05L20.95 -29.65L20.8 -29.6L20.8 -29.45L19.7 -28.35L19.5 -28.35L18.4 -26.75L18.35 -26.75L17.75 -25.55L17.75 -25.3L17.4 -24.75Q17.15 -24.35 16.65 -24.05L16.25 -23.85L16 -23.25Q15.85 -22.9 15.75 -21.15L15.25 -21.25L15.2 -20.85L14.45 -20.4L14.45 -20.5L14.35 -20.35L14.45 -20.4L14.45 -19.45L13.5 -19.05L12.95 -17.45L12.6 -16.6L12.15 -16.1L11.95 -16.1L12.1 -16.05L12.05 -16L12.15 -16L12.15 -16.05L12.1 -16.05L12.15 -16.1L13.4 -16.1L13.9 -15.8L15.65 -16.9L17.35 -17L17.45 -16.7L17.8 -17.05L17.35 -17L17.25 -17.3L18.5 -17.3L20.2 -17.75L20.6 -17.6L21.1 -17.8L21.1 -17.9L22.6 -18.4L22.6 -18.55L24.4 -19L24.5 -18.9L24.5 -19L24.4 -19L23.85 -19.5L23.85 -21.75L24.4 -22.7L24.35 -22.75L23.5 -22.4L22.3 -24.5L23.55 -24.2L23.55 -24.75L22.25 -24.6L22.3 -24.5L22 -24.6L22.15 -25.25L21.7 -25.85L22 -26.35L21.2 -27.55L21.45 -28.1L21.55 -28.1" />
</g>
<g id="PathID_52" transform="matrix(0.79545, 0, 0, 0.79545, 470.45, 93.4)" opacity="1">
</g>
<g id="PathID_53" transform="matrix(0.517169, 0, 0, -0.517169, 433.65, 26.95)" opacity="1">
<path style="fill:#313131;fill-opacity:1" d="M-0.4 -0.8Q26.7 12.5 47.2 0.45Q57.45 -5.55 62.25 -14.25Q57.7 -2.95 47.25 5.4Q26.35 22.05 -3 7.3Q-25.45 -3.95 -46.05 2Q-52.5 3.85 -58 7.2L-62.2 10.2L-58.65 5.5Q-53.8 0.15 -47.55 -3.25Q-27.45 -14.05 -0.4 -0.8" />
</g>
<g id="PathID_54" transform="matrix(0.517169, 0, 0, -0.517169, 433.65, 26.95)" opacity="1">
</g>
<g id="PathID_55" transform="matrix(0.517169, 0, 0, -0.517169, 99.7, 28.3)" opacity="1">
<path style="fill:#313131;fill-opacity:1" d="M-0.4 -0.8Q26.7 12.5 47.2 0.45Q57.45 -5.55 62.25 -14.25Q57.7 -2.95 47.25 5.4Q26.35 22.05 -3 7.3Q-25.45 -3.95 -46.05 2Q-52.5 3.85 -58 7.2L-62.2 10.2L-58.65 5.5Q-53.8 0.15 -47.55 -3.25Q-27.45 -14.05 -0.4 -0.8" />
</g>
<g id="PathID_56" transform="matrix(0.517169, 0, 0, -0.517169, 99.7, 28.3)" opacity="1">
</g>
</svg>
